<?xml version="1.0" encoding="utf-8" standalone="no"?>
<!DOCTYPE svg PUBLIC "-//W3C//DTD SVG 1.1//EN"
  "http://www.w3.org/Graphics/SVG/1.1/DTD/svg11.dtd">
<!-- Created with matplotlib (https://matplotlib.org/) -->
<svg height="492.48pt" version="1.1" viewBox="0 0 983.52 492.48" width="983.52pt" xmlns="http://www.w3.org/2000/svg" xmlns:xlink="http://www.w3.org/1999/xlink">
 <metadata>
  <rdf:RDF xmlns:cc="http://creativecommons.org/ns#" xmlns:dc="http://purl.org/dc/elements/1.1/" xmlns:rdf="http://www.w3.org/1999/02/22-rdf-syntax-ns#">
   <cc:Work>
    <dc:type rdf:resource="http://purl.org/dc/dcmitype/StillImage"/>
    <dc:date>2021-01-21T16:43:53.493933</dc:date>
    <dc:format>image/svg+xml</dc:format>
    <dc:creator>
     <cc:Agent>
      <dc:title>Matplotlib v3.3.2, https://matplotlib.org/</dc:title>
     </cc:Agent>
    </dc:creator>
   </cc:Work>
  </rdf:RDF>
 </metadata>
 <defs>
  <style type="text/css">*{stroke-linecap:butt;stroke-linejoin:round;}</style>
 </defs>
 <g id="figure_1">
  <g id="patch_1">
   <path d="M 0 492.48 
L 983.52 492.48 
L 983.52 0 
L 0 0 
z
" style="fill:#ffffff;"/>
  </g>
  <g id="axes_1">
   <g id="patch_2">
    <path d="M 50.789062 452.18 
L 972.72 452.18 
L 972.72 27.72 
L 50.789062 27.72 
z
" style="fill:#ffffff;"/>
   </g>
   <g id="patch_3">
    <path clip-path="url(#p904ab10e4b)" d="M 436.211695 381.200067 
L 420.79479 384.749064 
L 420.79479 381.271047 
L 204.958116 381.271047 
L 204.958116 381.129087 
L 420.79479 381.129087 
L 420.79479 377.65107 
z
" style="stroke:#000000;stroke-linejoin:miter;"/>
   </g>
   <g id="patch_4">
    <path clip-path="url(#p904ab10e4b)" d="M 436.211695 274.730167 
L 439.295076 288.926154 
L 436.365864 288.926154 
L 436.365864 381.200067 
L 436.057526 381.200067 
L 436.057526 288.926154 
L 433.128314 288.926154 
z
" style="stroke:#000000;stroke-linejoin:miter;"/>
   </g>
   <g id="matplotlib.axis_1">
    <g id="xtick_1">
     <g id="line2d_1">
      <path clip-path="url(#p904ab10e4b)" d="M 50.789062 452.18 
L 50.789062 27.72 
" style="fill:none;stroke:#b0b0b0;stroke-linecap:square;stroke-width:0.8;"/>
     </g>
     <g id="line2d_2">
      <defs>
       <path d="M 0 0 
L 0 3.5 
" id="mf8708c6e78" style="stroke:#000000;stroke-width:0.8;"/>
      </defs>
      <g>
       <use style="stroke:#000000;stroke-width:0.8;" x="50.789062" xlink:href="#mf8708c6e78" y="452.18"/>
      </g>
     </g>
     <g id="text_1">
      <!-- −1.5 -->
      <g transform="translate(40.919531 466.359688)scale(0.1 -0.1)">
       <defs>
        <path d="M 54.5 21.59375 
L 54.5 28.90625 
L 3.90625 28.90625 
L 3.90625 21.59375 
z
" id="Helvetica-8722"/>
        <path d="M 35.90625 70.296875 
L 29 70.296875 
C 26.203125 58.796875 21.5 57.703125 10.09375 56.90625 
L 10.09375 49.90625 
L 26.5 49.90625 
L 26.5 0 
L 35.90625 0 
z
" id="Helvetica-49"/>
        <path d="M 19.09375 10.59375 
L 8.703125 10.59375 
L 8.703125 0 
L 19.09375 0 
z
" id="Helvetica-46"/>
        <path d="M 17.703125 60.203125 
L 47.5 60.203125 
L 47.5 68.796875 
L 11.09375 68.796875 
L 5.796875 31.09375 
L 13.40625 30.703125 
C 16.703125 35 21.296875 37.40625 26.40625 37.40625 
C 35.09375 37.40625 42 31.90625 42 21.796875 
C 42 13 36.296875 5.703125 27.203125 5.703125 
C 19.296875 5.703125 13.203125 9.296875 12.296875 17.5 
L 3.203125 17.5 
C 4.90625 1.796875 16.703125 -1.90625 25.90625 -1.90625 
C 47.90625 -1.90625 51.40625 15 51.40625 22.796875 
C 51.40625 37.296875 39.703125 45.296875 28.296875 45.296875 
C 22 45.296875 17.703125 43.203125 14.703125 40.90625 
z
" id="Helvetica-53"/>
       </defs>
       <use xlink:href="#Helvetica-8722"/>
       <use x="58.399994" xlink:href="#Helvetica-49"/>
       <use x="113.999985" xlink:href="#Helvetica-46"/>
       <use x="141.799973" xlink:href="#Helvetica-53"/>
      </g>
     </g>
    </g>
    <g id="xtick_2">
     <g id="line2d_3">
      <path clip-path="url(#p904ab10e4b)" d="M 204.958116 452.18 
L 204.958116 27.72 
" style="fill:none;stroke:#b0b0b0;stroke-linecap:square;stroke-width:0.8;"/>
     </g>
     <g id="line2d_4">
      <g>
       <use style="stroke:#000000;stroke-width:0.8;" x="204.958116" xlink:href="#mf8708c6e78" y="452.18"/>
      </g>
     </g>
     <g id="text_2">
      <!-- −1.0 -->
      <g transform="translate(195.088584 466.359688)scale(0.1 -0.1)">
       <defs>
        <path d="M 42.5 34.203125 
C 42.5 16.59375 37.90625 6 27.796875 6 
C 17.703125 6 13.09375 16.59375 13.09375 34.203125 
C 13.09375 51.796875 17.703125 62.40625 27.796875 62.40625 
C 37.90625 62.40625 42.5 51.796875 42.5 34.203125 
z
M 51.90625 34.203125 
C 51.90625 48.796875 48 70.296875 27.796875 70.296875 
C 7.59375 70.296875 3.703125 48.796875 3.703125 34.203125 
C 3.703125 19.59375 7.59375 -1.90625 27.796875 -1.90625 
C 48 -1.90625 51.90625 19.59375 51.90625 34.203125 
z
" id="Helvetica-48"/>
       </defs>
       <use xlink:href="#Helvetica-8722"/>
       <use x="58.399994" xlink:href="#Helvetica-49"/>
       <use x="113.999985" xlink:href="#Helvetica-46"/>
       <use x="141.799973" xlink:href="#Helvetica-48"/>
      </g>
     </g>
    </g>
    <g id="xtick_3">
     <g id="line2d_5">
      <path clip-path="url(#p904ab10e4b)" d="M 359.127169 452.18 
L 359.127169 27.72 
" style="fill:none;stroke:#b0b0b0;stroke-linecap:square;stroke-width:0.8;"/>
     </g>
     <g id="line2d_6">
      <g>
       <use style="stroke:#000000;stroke-width:0.8;" x="359.127169" xlink:href="#mf8708c6e78" y="452.18"/>
      </g>
     </g>
     <g id="text_3">
      <!-- −0.5 -->
      <g transform="translate(349.257637 466.359688)scale(0.1 -0.1)">
       <use xlink:href="#Helvetica-8722"/>
       <use x="58.399994" xlink:href="#Helvetica-48"/>
       <use x="113.999985" xlink:href="#Helvetica-46"/>
       <use x="141.799973" xlink:href="#Helvetica-53"/>
      </g>
     </g>
    </g>
    <g id="xtick_4">
     <g id="line2d_7">
      <path clip-path="url(#p904ab10e4b)" d="M 513.296222 452.18 
L 513.296222 27.72 
" style="fill:none;stroke:#b0b0b0;stroke-linecap:square;stroke-width:0.8;"/>
     </g>
     <g id="line2d_8">
      <g>
       <use style="stroke:#000000;stroke-width:0.8;" x="513.296222" xlink:href="#mf8708c6e78" y="452.18"/>
      </g>
     </g>
     <g id="text_4">
      <!-- 0.0 -->
      <g transform="translate(506.347003 466.359688)scale(0.1 -0.1)">
       <use xlink:href="#Helvetica-48"/>
       <use x="55.599991" xlink:href="#Helvetica-46"/>
       <use x="83.399979" xlink:href="#Helvetica-48"/>
      </g>
     </g>
    </g>
    <g id="xtick_5">
     <g id="line2d_9">
      <path clip-path="url(#p904ab10e4b)" d="M 667.465275 452.18 
L 667.465275 27.72 
" style="fill:none;stroke:#b0b0b0;stroke-linecap:square;stroke-width:0.8;"/>
     </g>
     <g id="line2d_10">
      <g>
       <use style="stroke:#000000;stroke-width:0.8;" x="667.465275" xlink:href="#mf8708c6e78" y="452.18"/>
      </g>
     </g>
     <g id="text_5">
      <!-- 0.5 -->
      <g transform="translate(660.516056 466.359688)scale(0.1 -0.1)">
       <use xlink:href="#Helvetica-48"/>
       <use x="55.599991" xlink:href="#Helvetica-46"/>
       <use x="83.399979" xlink:href="#Helvetica-53"/>
      </g>
     </g>
    </g>
    <g id="xtick_6">
     <g id="line2d_11">
      <path clip-path="url(#p904ab10e4b)" d="M 821.634328 452.18 
L 821.634328 27.72 
" style="fill:none;stroke:#b0b0b0;stroke-linecap:square;stroke-width:0.8;"/>
     </g>
     <g id="line2d_12">
      <g>
       <use style="stroke:#000000;stroke-width:0.8;" x="821.634328" xlink:href="#mf8708c6e78" y="452.18"/>
      </g>
     </g>
     <g id="text_6">
      <!-- 1.0 -->
      <g transform="translate(814.685109 466.359688)scale(0.1 -0.1)">
       <use xlink:href="#Helvetica-49"/>
       <use x="55.599991" xlink:href="#Helvetica-46"/>
       <use x="83.399979" xlink:href="#Helvetica-48"/>
      </g>
     </g>
    </g>
    <g id="text_7">
     <!-- $ x_1 $ -->
     <g transform="translate(506.404531 479.609688)scale(0.1 -0.1)">
      <defs>
       <path d="M 60.015625 54.6875 
L 34.90625 27.875 
L 50.296875 0 
L 39.984375 0 
L 28.421875 21.6875 
L 8.296875 0 
L -2.59375 0 
L 24.3125 28.8125 
L 10.015625 54.6875 
L 20.3125 54.6875 
L 30.8125 34.90625 
L 49.125 54.6875 
z
" id="DejaVuSans-Oblique-120"/>
       <path d="M 12.40625 8.296875 
L 28.515625 8.296875 
L 28.515625 63.921875 
L 10.984375 60.40625 
L 10.984375 69.390625 
L 28.421875 72.90625 
L 38.28125 72.90625 
L 38.28125 8.296875 
L 54.390625 8.296875 
L 54.390625 0 
L 12.40625 0 
z
" id="DejaVuSans-49"/>
      </defs>
      <use transform="translate(0 0.3125)" xlink:href="#DejaVuSans-Oblique-120"/>
      <use transform="translate(59.179688 -16.09375)scale(0.7)" xlink:href="#DejaVuSans-49"/>
     </g>
    </g>
   </g>
   <g id="matplotlib.axis_2">
    <g id="ytick_1">
     <g id="line2d_13">
      <path clip-path="url(#p904ab10e4b)" d="M 50.789062 452.18 
L 972.72 452.18 
" style="fill:none;stroke:#b0b0b0;stroke-linecap:square;stroke-width:0.8;"/>
     </g>
     <g id="line2d_14">
      <defs>
       <path d="M 0 0 
L -3.5 0 
" id="m0c56179528" style="stroke:#000000;stroke-width:0.8;"/>
      </defs>
      <g>
       <use style="stroke:#000000;stroke-width:0.8;" x="50.789062" xlink:href="#m0c56179528" y="452.18"/>
      </g>
     </g>
     <g id="text_8">
      <!-- −1.5 -->
      <g transform="translate(24.05 455.769844)scale(0.1 -0.1)">
       <use xlink:href="#Helvetica-8722"/>
       <use x="58.399994" xlink:href="#Helvetica-49"/>
       <use x="113.999985" xlink:href="#Helvetica-46"/>
       <use x="141.799973" xlink:href="#Helvetica-53"/>
      </g>
     </g>
    </g>
    <g id="ytick_2">
     <g id="line2d_15">
      <path clip-path="url(#p904ab10e4b)" d="M 50.789062 381.200067 
L 972.72 381.200067 
" style="fill:none;stroke:#b0b0b0;stroke-linecap:square;stroke-width:0.8;"/>
     </g>
     <g id="line2d_16">
      <g>
       <use style="stroke:#000000;stroke-width:0.8;" x="50.789062" xlink:href="#m0c56179528" y="381.200067"/>
      </g>
     </g>
     <g id="text_9">
      <!-- −1.0 -->
      <g transform="translate(24.05 384.789911)scale(0.1 -0.1)">
       <use xlink:href="#Helvetica-8722"/>
       <use x="58.399994" xlink:href="#Helvetica-49"/>
       <use x="113.999985" xlink:href="#Helvetica-46"/>
       <use x="141.799973" xlink:href="#Helvetica-48"/>
      </g>
     </g>
    </g>
    <g id="ytick_3">
     <g id="line2d_17">
      <path clip-path="url(#p904ab10e4b)" d="M 50.789062 310.220134 
L 972.72 310.220134 
" style="fill:none;stroke:#b0b0b0;stroke-linecap:square;stroke-width:0.8;"/>
     </g>
     <g id="line2d_18">
      <g>
       <use style="stroke:#000000;stroke-width:0.8;" x="50.789062" xlink:href="#m0c56179528" y="310.220134"/>
      </g>
     </g>
     <g id="text_10">
      <!-- −0.5 -->
      <g transform="translate(24.05 313.809978)scale(0.1 -0.1)">
       <use xlink:href="#Helvetica-8722"/>
       <use x="58.399994" xlink:href="#Helvetica-48"/>
       <use x="113.999985" xlink:href="#Helvetica-46"/>
       <use x="141.799973" xlink:href="#Helvetica-53"/>
      </g>
     </g>
    </g>
    <g id="ytick_4">
     <g id="line2d_19">
      <path clip-path="url(#p904ab10e4b)" d="M 50.789062 239.240201 
L 972.72 239.240201 
" style="fill:none;stroke:#b0b0b0;stroke-linecap:square;stroke-width:0.8;"/>
     </g>
     <g id="line2d_20">
      <g>
       <use style="stroke:#000000;stroke-width:0.8;" x="50.789062" xlink:href="#m0c56179528" y="239.240201"/>
      </g>
     </g>
     <g id="text_11">
      <!-- 0.0 -->
      <g transform="translate(29.890625 242.830044)scale(0.1 -0.1)">
       <use xlink:href="#Helvetica-48"/>
       <use x="55.599991" xlink:href="#Helvetica-46"/>
       <use x="83.399979" xlink:href="#Helvetica-48"/>
      </g>
     </g>
    </g>
    <g id="ytick_5">
     <g id="line2d_21">
      <path clip-path="url(#p904ab10e4b)" d="M 50.789062 168.260268 
L 972.72 168.260268 
" style="fill:none;stroke:#b0b0b0;stroke-linecap:square;stroke-width:0.8;"/>
     </g>
     <g id="line2d_22">
      <g>
       <use style="stroke:#000000;stroke-width:0.8;" x="50.789062" xlink:href="#m0c56179528" y="168.260268"/>
      </g>
     </g>
     <g id="text_12">
      <!-- 0.5 -->
      <g transform="translate(29.890625 171.850111)scale(0.1 -0.1)">
       <use xlink:href="#Helvetica-48"/>
       <use x="55.599991" xlink:href="#Helvetica-46"/>
       <use x="83.399979" xlink:href="#Helvetica-53"/>
      </g>
     </g>
    </g>
    <g id="ytick_6">
     <g id="line2d_23">
      <path clip-path="url(#p904ab10e4b)" d="M 50.789062 97.280334 
L 972.72 97.280334 
" style="fill:none;stroke:#b0b0b0;stroke-linecap:square;stroke-width:0.8;"/>
     </g>
     <g id="line2d_24">
      <g>
       <use style="stroke:#000000;stroke-width:0.8;" x="50.789062" xlink:href="#m0c56179528" y="97.280334"/>
      </g>
     </g>
     <g id="text_13">
      <!-- 1.0 -->
      <g transform="translate(29.890625 100.870178)scale(0.1 -0.1)">
       <use xlink:href="#Helvetica-49"/>
       <use x="55.599991" xlink:href="#Helvetica-46"/>
       <use x="83.399979" xlink:href="#Helvetica-48"/>
      </g>
     </g>
    </g>
    <g id="text_14">
     <!-- $ x_2 $ -->
     <g transform="translate(17.979687 245.3)rotate(-90)scale(0.1 -0.1)">
      <defs>
       <path d="M 19.1875 8.296875 
L 53.609375 8.296875 
L 53.609375 0 
L 7.328125 0 
L 7.328125 8.296875 
Q 12.9375 14.109375 22.625 23.890625 
Q 32.328125 33.6875 34.8125 36.53125 
Q 39.546875 41.84375 41.421875 45.53125 
Q 43.3125 49.21875 43.3125 52.78125 
Q 43.3125 58.59375 39.234375 62.25 
Q 35.15625 65.921875 28.609375 65.921875 
Q 23.96875 65.921875 18.8125 64.3125 
Q 13.671875 62.703125 7.8125 59.421875 
L 7.8125 69.390625 
Q 13.765625 71.78125 18.9375 73 
Q 24.125 74.21875 28.421875 74.21875 
Q 39.75 74.21875 46.484375 68.546875 
Q 53.21875 62.890625 53.21875 53.421875 
Q 53.21875 48.921875 51.53125 44.890625 
Q 49.859375 40.875 45.40625 35.40625 
Q 44.1875 33.984375 37.640625 27.21875 
Q 31.109375 20.453125 19.1875 8.296875 
z
" id="DejaVuSans-50"/>
      </defs>
      <use transform="translate(0 0.3125)" xlink:href="#DejaVuSans-Oblique-120"/>
      <use transform="translate(59.179688 -16.09375)scale(0.7)" xlink:href="#DejaVuSans-50"/>
     </g>
    </g>
   </g>
   <g id="LineCollection_1"/>
   <g id="LineCollection_2">
    <path clip-path="url(#p904ab10e4b)" d="M 433.128314 365.618015 
L 430.044933 365.226697 
L 424.115354 364.164883 
L 420.79479 363.374845 
L 417.711409 362.50229 
L 414.207567 361.325686 
L 410.632218 359.906087 
L 407.547671 358.486488 
L 404.829147 357.06689 
L 402.294504 355.584891 
L 398.24206 352.808094 
L 394.748334 349.968896 
L 391.765885 347.129699 
L 389.190134 344.290502 
L 386.877598 341.358216 
L 385.014722 338.612107 
L 383.31055 335.77291 
L 381.837456 332.933712 
L 380.542652 330.094515 
L 378.950853 325.835719 
L 377.680617 321.576923 
L 377.020888 318.737726 
L 376.258434 314.47893 
L 375.74852 310.220134 
L 375.473796 305.961338 
L 375.418466 301.702542 
L 375.568117 297.443746 
L 375.909571 293.18495 
L 376.430758 288.926154 
L 377.386238 283.247759 
L 378.303265 278.988963 
L 379.765266 273.310569 
L 381.491959 267.632174 
L 383.794217 261.096663 
L 385.716325 256.275385 
L 388.199047 250.59699 
L 390.922033 244.918595 
L 393.885282 239.240201 
L 397.088795 233.561806 
L 400.532572 227.883411 
L 404.216611 222.205017 
L 408.461266 216.076848 
L 413.413053 209.428629 
L 417.910675 203.750234 
L 423.920996 196.652241 
L 430.383886 189.554247 
L 436.211695 183.556718 
L 442.378457 177.589059 
L 448.545219 171.969876 
L 454.711982 166.669512 
L 461.528547 161.162274 
L 467.098668 156.903478 
L 475.02926 151.225084 
L 479.37903 148.27307 
L 485.835813 144.12709 
L 492.933059 139.868294 
L 497.947836 137.029097 
L 504.046079 133.786917 
L 511.910652 129.931104 
L 518.21696 127.091906 
L 522.546365 125.269325 
L 528.815906 122.83311 
L 534.879889 120.699073 
L 541.669888 118.574314 
L 547.213413 117.0419 
L 553.380176 115.573149 
L 559.784121 114.315518 
L 565.7137 113.40221 
L 571.880462 112.724762 
L 578.047224 112.346732 
L 584.213986 112.28752 
L 590.380748 112.576785 
L 596.54751 113.253705 
L 602.477089 114.315518 
L 605.797654 115.105556 
L 608.881035 115.978111 
L 612.384877 117.154716 
L 615.960226 118.574314 
L 619.044772 119.993913 
L 621.763296 121.413512 
L 624.29794 122.89551 
L 628.350384 125.672308 
L 631.844109 128.511505 
L 634.826558 131.350702 
L 637.40231 134.1899 
L 639.714845 137.122185 
L 641.577721 139.868294 
L 643.281894 142.707492 
L 644.754987 145.546689 
L 646.049792 148.385886 
L 647.64159 152.644682 
L 648.911827 156.903478 
L 649.571555 159.742676 
L 650.33401 164.001472 
L 650.843924 168.260268 
L 651.118648 172.519064 
L 651.173978 176.77786 
L 651.024327 181.036656 
L 650.682872 185.295452 
L 650.161685 189.554247 
L 649.206205 195.232642 
L 648.289179 199.491438 
L 646.827178 205.169833 
L 645.100484 210.848227 
L 642.798226 217.383738 
L 640.876119 222.205017 
L 638.393396 227.883411 
L 635.67041 233.561806 
L 632.707161 239.240201 
L 629.503648 244.918595 
L 626.059872 250.59699 
L 622.375832 256.275385 
L 618.131178 262.403553 
L 613.17939 269.051773 
L 608.681769 274.730167 
L 602.671448 281.828161 
L 596.208557 288.926154 
L 590.380748 294.923683 
L 584.213986 300.891343 
L 578.047224 306.510526 
L 571.880462 311.81089 
L 565.063896 317.318127 
L 559.493776 321.576923 
L 551.563183 327.255318 
L 547.213413 330.207331 
L 540.75663 334.353311 
L 533.659384 338.612107 
L 528.644608 341.451304 
L 522.546365 344.693485 
L 514.681792 348.549298 
L 508.375484 351.388495 
L 504.046079 353.211076 
L 497.776537 355.647291 
L 491.712554 357.781328 
L 484.922556 359.906087 
L 479.37903 361.438501 
L 473.212268 362.907252 
L 466.808323 364.164883 
L 460.878744 365.078191 
L 454.711982 365.755639 
L 448.545219 366.133669 
L 442.378457 366.192881 
L 436.211695 365.903616 
L 433.128314 365.618015 
L 433.128314 365.618015 
" style="fill:none;stroke:#0009fa;"/>
   </g>
   <g id="LineCollection_3">
    <path clip-path="url(#p904ab10e4b)" d="M 402.294504 418.203749 
L 396.127741 417.493121 
L 389.960979 416.480034 
L 383.794217 415.131088 
L 377.627455 413.407777 
L 371.460693 411.265474 
L 367.408249 409.59204 
L 364.327805 408.172441 
L 361.516789 406.752843 
L 358.927656 405.333244 
L 354.332681 402.494047 
L 352.253798 401.074448 
L 348.486481 398.235251 
L 345.137755 395.396054 
L 342.141526 392.556856 
L 339.44492 389.717659 
L 337.005133 386.878462 
L 334.46012 383.582382 
L 331.867796 379.780468 
L 330.1412 376.941271 
L 327.835018 372.682475 
L 325.853199 368.423679 
L 324.156163 364.164883 
L 322.710715 359.906087 
L 321.502578 355.647291 
L 320.51278 351.388495 
L 319.716597 347.129699 
L 319.043215 342.347893 
L 318.568208 337.192508 
L 318.317234 331.514114 
L 318.33228 325.835719 
L 318.597142 320.157324 
L 319.097996 314.47893 
L 319.833235 308.800535 
L 320.780437 303.12214 
L 322.126596 296.55237 
L 323.284708 291.765351 
L 325.239343 284.667358 
L 327.497416 277.569365 
L 329.505199 271.89097 
L 332.261784 264.792977 
L 335.291354 257.694983 
L 338.590154 250.59699 
L 342.154493 243.498997 
L 345.980753 236.401003 
L 349.877026 229.625104 
L 353.535876 223.624615 
L 358.108804 216.526622 
L 362.21055 210.480562 
L 368.063264 202.330635 
L 372.362436 196.652241 
L 377.988904 189.554247 
L 383.91396 182.456254 
L 390.150843 175.358261 
L 396.713584 168.260268 
L 403.617071 161.162274 
L 409.395866 155.48388 
L 415.419266 149.805485 
L 421.703137 144.12709 
L 428.264749 138.448696 
L 435.122931 132.770301 
L 442.378457 127.029583 
L 451.628601 120.10364 
L 459.82493 114.315518 
L 467.045506 109.463557 
L 476.295649 103.592596 
L 485.545792 98.091534 
L 494.795935 92.950234 
L 504.046079 88.166381 
L 513.296222 83.732566 
L 522.546365 79.648789 
L 531.796508 75.91505 
L 539.319215 73.147157 
L 544.130032 71.492049 
L 552.411113 68.888361 
L 557.368994 67.468763 
L 562.74044 66.049164 
L 568.797081 64.609381 
L 575.551154 63.209967 
L 581.130605 62.212785 
L 587.297367 61.293858 
L 593.464129 60.570512 
L 599.630892 60.053702 
L 605.797654 59.752913 
L 611.964416 59.679748 
L 618.131178 59.848971 
L 625.222954 60.370769 
L 630.464702 60.987281 
L 636.631464 62.000368 
L 642.798226 63.349314 
L 648.964989 65.072625 
L 655.131751 67.214927 
L 659.184194 68.888361 
L 662.264639 70.30796 
L 665.075655 71.727559 
L 667.664788 73.147157 
L 672.259763 75.986355 
L 674.338645 77.405953 
L 678.105962 80.245151 
L 681.454689 83.084348 
L 684.450918 85.923545 
L 687.147524 88.762742 
L 689.58731 91.60194 
L 692.132323 94.898019 
L 694.724647 98.699933 
L 696.451244 101.53913 
L 698.757426 105.797926 
L 700.739245 110.056722 
L 702.43628 114.315518 
L 703.881729 118.574314 
L 705.089865 122.83311 
L 706.079664 127.091906 
L 706.875847 131.350702 
L 707.549229 136.132508 
L 708.024236 141.287893 
L 708.27521 146.966288 
L 708.260164 152.644682 
L 707.995302 158.323077 
L 707.494448 164.001472 
L 706.759208 169.679866 
L 705.812007 175.358261 
L 704.465848 181.928031 
L 703.307736 186.71505 
L 701.353101 193.813043 
L 699.095028 200.911037 
L 697.087245 206.589431 
L 694.33066 213.687425 
L 691.301089 220.785418 
L 688.00229 227.883411 
L 684.43795 234.981405 
L 680.61169 242.079398 
L 676.715418 248.855297 
L 673.056567 254.855786 
L 668.483639 261.953779 
L 664.381894 267.99984 
L 658.52918 276.149766 
L 654.230007 281.828161 
L 648.60354 288.926154 
L 642.678483 296.024147 
L 636.441601 303.12214 
L 629.87886 310.220134 
L 622.975373 317.318127 
L 617.196578 322.996522 
L 611.173178 328.674916 
L 604.889306 334.353311 
L 598.327695 340.031706 
L 591.469513 345.7101 
L 584.213986 351.450819 
L 574.963843 358.376761 
L 566.767514 364.164883 
L 559.546938 369.016845 
L 550.296795 374.887805 
L 541.046651 380.388868 
L 531.796508 385.530167 
L 522.546365 390.31402 
L 513.296222 394.747835 
L 504.046079 398.831612 
L 494.795935 402.565351 
L 487.273229 405.333244 
L 482.462411 406.988352 
L 474.181331 409.59204 
L 469.22345 411.011639 
L 463.852004 412.431237 
L 457.795363 413.87102 
L 451.04129 415.270435 
L 445.461838 416.267616 
L 439.295076 417.186543 
L 433.128314 417.90989 
L 426.961552 418.4267 
L 420.79479 418.727489 
L 414.628028 418.800654 
L 408.461266 418.631431 
L 402.294504 418.203749 
L 402.294504 418.203749 
" style="fill:none;stroke:#0012f6;"/>
   </g>
   <g id="LineCollection_4">
    <path clip-path="url(#p904ab10e4b)" d="M 345.977455 452.18 
L 340.626882 450.323011 
L 334.46012 447.81694 
L 328.293358 444.872007 
L 323.518608 442.242809 
L 319.043215 439.48499 
L 314.832716 436.564415 
L 311.137426 433.725217 
L 307.780636 430.88602 
L 304.717871 428.046823 
L 301.912122 425.207625 
L 299.332339 422.368428 
L 296.952282 419.529231 
L 293.729037 415.270435 
L 290.864031 411.011639 
L 288.209404 406.561436 
L 286.064818 402.494047 
L 284.065075 398.235251 
L 282.042642 393.319626 
L 280.752656 389.717659 
L 279.400851 385.458863 
L 278.240803 381.200067 
L 276.962405 375.521672 
L 275.96233 369.843278 
L 275.236981 364.164883 
L 274.757131 358.486488 
L 274.508468 352.808094 
L 274.479135 347.129699 
L 274.658074 341.451304 
L 275.034958 335.77291 
L 275.60013 330.094515 
L 276.352175 324.41612 
L 277.540414 317.318127 
L 278.983732 310.220134 
L 280.692913 303.12214 
L 282.640197 296.024147 
L 285.126023 288.009704 
L 287.251687 281.828161 
L 289.902355 274.730167 
L 292.776518 267.632174 
L 295.871664 260.534181 
L 299.18532 253.436187 
L 302.71505 246.338194 
L 306.709691 238.777517 
L 311.242721 230.722609 
L 315.959834 222.806701 
L 320.81587 215.107023 
L 325.513643 208.00903 
L 331.447351 199.491438 
L 337.709529 190.973846 
L 344.307818 182.456254 
L 351.250094 173.938662 
L 357.305171 166.840669 
L 363.616572 159.742676 
L 370.193636 152.644682 
L 377.046162 145.546689 
L 383.794217 138.833565 
L 391.647615 131.350702 
L 399.211122 124.439975 
L 407.552769 117.154716 
L 414.628028 111.221373 
L 423.878171 103.802507 
L 433.128314 96.741673 
L 442.378457 90.022153 
L 452.448649 83.084348 
L 461.118562 77.405953 
L 470.236447 71.727559 
L 479.867859 66.049164 
L 488.629173 61.157663 
L 498.204435 56.111973 
L 507.12946 51.684303 
L 516.379603 47.378011 
L 525.681136 43.335585 
L 534.879889 39.624425 
L 544.130032 36.179107 
L 553.380176 33.028763 
L 562.630319 30.17596 
L 571.531012 27.72 
L 571.531012 27.72 
" style="fill:none;stroke:#001cf1;"/>
    <path clip-path="url(#p904ab10e4b)" d="M 684.761775 27.72 
L 689.048942 29.359205 
L 695.215704 32.077265 
L 700.564427 34.817993 
L 704.465848 37.057609 
L 707.672018 39.076789 
L 711.759728 41.915987 
L 715.455018 44.755184 
L 718.811808 47.594381 
L 721.874572 50.433579 
L 724.680321 53.272776 
L 727.260104 56.111973 
L 729.640162 58.951171 
L 732.863407 63.209967 
L 735.728412 67.468763 
L 738.383039 71.918965 
L 740.527626 75.986355 
L 742.527369 80.245151 
L 744.549801 85.160776 
L 745.839787 88.762742 
L 747.191593 93.021538 
L 748.35164 97.280334 
L 749.630039 102.958729 
L 750.630114 108.637124 
L 751.355462 114.315518 
L 751.835312 119.993913 
L 752.083976 125.672308 
L 752.113309 131.350702 
L 751.93437 137.029097 
L 751.557486 142.707492 
L 750.992313 148.385886 
L 750.240269 154.064281 
L 749.052029 161.162274 
L 747.608711 168.260268 
L 745.89953 175.358261 
L 743.952247 182.456254 
L 741.46642 190.470697 
L 739.340756 196.652241 
L 736.690089 203.750234 
L 733.815926 210.848227 
L 730.72078 217.946221 
L 727.407123 225.044214 
L 723.877393 232.142207 
L 719.882753 239.702885 
L 715.349723 247.757793 
L 710.63261 255.6737 
L 705.776573 263.373378 
L 701.0788 270.471371 
L 695.145093 278.988963 
L 688.882914 287.506555 
L 682.284626 296.024147 
L 675.34235 304.541739 
L 669.287273 311.639732 
L 662.975872 318.737726 
L 656.398808 325.835719 
L 649.546282 332.933712 
L 642.798226 339.646837 
L 634.944828 347.129699 
L 627.381321 354.040426 
L 619.039674 361.325686 
L 611.964416 367.259029 
L 602.714273 374.677895 
L 593.464129 381.738729 
L 584.213986 388.458248 
L 574.143795 395.396054 
L 565.473881 401.074448 
L 556.355997 406.752843 
L 546.724585 412.431237 
L 537.96327 417.322738 
L 528.388009 422.368428 
L 519.462984 426.796098 
L 510.212841 431.10239 
L 500.911308 435.144816 
L 491.712554 438.855977 
L 482.462411 442.301295 
L 473.212268 445.451638 
L 463.962125 448.304442 
L 454.711982 450.852866 
L 449.361409 452.18 
L 449.361409 452.18 
" style="fill:none;stroke:#001cf1;"/>
   </g>
   <g id="LineCollection_5">
    <path clip-path="url(#p904ab10e4b)" d="M 267.54341 452.18 
L 265.066326 449.340803 
L 261.65996 445.082007 
L 258.589265 440.823211 
L 255.818091 436.564415 
L 253.3153 432.305619 
L 251.053925 428.046823 
L 249.027194 423.788027 
L 247.203252 419.529231 
L 245.042069 413.790853 
L 243.246767 408.172441 
L 241.707115 402.494047 
L 240.442375 396.815652 
L 239.418332 391.137258 
L 238.627428 385.458863 
L 238.059818 379.780468 
L 237.697057 374.102074 
L 237.529937 368.423679 
L 237.549795 362.745284 
L 237.82517 355.647291 
L 238.365068 348.549298 
L 239.159591 341.451304 
L 240.202128 334.353311 
L 241.47295 327.255318 
L 242.974205 320.157324 
L 244.690274 313.059331 
L 246.625009 305.961338 
L 248.762683 298.863344 
L 251.596807 290.345753 
L 254.718206 281.828161 
L 258.121248 273.310569 
L 261.800446 264.792977 
L 265.750454 256.275385 
L 269.709118 248.26689 
L 273.69556 240.659799 
L 278.409011 232.142207 
L 282.543191 225.044214 
L 288.209404 215.796996 
L 293.234915 208.00903 
L 298.010512 200.911037 
L 303.99774 192.393445 
L 310.269408 183.875853 
L 316.831224 175.358261 
L 323.68905 166.840669 
L 329.635782 159.742676 
L 337.057763 151.225084 
L 343.710263 143.889525 
L 351.527669 135.609498 
L 359.127169 127.870752 
L 367.184471 119.993913 
L 374.723072 112.89592 
L 384.154536 104.378328 
L 393.04436 96.690107 
L 402.617761 88.762742 
L 411.563838 81.664749 
L 420.900205 74.566756 
L 430.662968 67.468763 
L 439.295076 61.453273 
L 449.446963 54.692375 
L 458.369718 49.01398 
L 467.70623 43.335585 
L 477.50932 37.657191 
L 485.545792 33.210034 
L 495.995028 27.72 
L 495.995028 27.72 
" style="fill:none;stroke:#0025ec;"/>
    <path clip-path="url(#p904ab10e4b)" d="M 760.314255 27.72 
L 763.838063 31.978796 
L 767.015613 36.237592 
L 769.884386 40.496388 
L 772.476643 44.755184 
L 775.383612 50.126243 
L 777.56525 54.692375 
L 779.389192 58.951171 
L 781.550374 64.689548 
L 783.345676 70.30796 
L 784.885328 75.986355 
L 786.150068 81.664749 
L 787.174112 87.343144 
L 787.965016 93.021538 
L 788.532625 98.699933 
L 788.895386 104.378328 
L 789.062507 110.056722 
L 789.042649 115.735117 
L 788.767273 122.83311 
L 788.227376 129.931104 
L 787.432853 137.029097 
L 786.390316 144.12709 
L 785.119493 151.225084 
L 783.618239 158.323077 
L 781.902169 165.42107 
L 779.967434 172.519064 
L 777.829761 179.617057 
L 774.995637 188.134649 
L 771.874238 196.652241 
L 768.471196 205.169833 
L 764.791998 213.687425 
L 760.841989 222.205017 
L 756.883326 230.213511 
L 752.896883 237.820602 
L 748.183432 246.338194 
L 744.049253 253.436187 
L 738.383039 262.683405 
L 733.357529 270.471371 
L 728.581931 277.569365 
L 722.594704 286.086957 
L 716.323036 294.604548 
L 709.761219 303.12214 
L 702.903394 311.639732 
L 696.956661 318.737726 
L 689.53468 327.255318 
L 682.88218 334.590877 
L 675.064774 342.870903 
L 667.465275 350.609649 
L 659.407973 358.486488 
L 651.869372 365.584482 
L 642.437908 374.102074 
L 633.548083 381.790294 
L 623.974682 389.717659 
L 615.028606 396.815652 
L 605.692239 403.913645 
L 595.929476 411.011639 
L 587.297367 417.027129 
L 577.145481 423.788027 
L 568.222726 429.466421 
L 558.886213 435.144816 
L 549.083123 440.823211 
L 541.046651 445.270368 
L 530.597416 450.760401 
L 527.795454 452.18 
L 527.795454 452.18 
" style="fill:none;stroke:#0025ec;"/>
   </g>
   <g id="LineCollection_6">
    <path clip-path="url(#p904ab10e4b)" d="M 221.051201 452.18 
L 218.925176 447.921204 
L 216.98585 443.662408 
L 214.684553 437.984013 
L 213.154059 433.725217 
L 211.346833 428.046823 
L 209.80426 422.368428 
L 208.494261 416.690033 
L 207.412576 411.011639 
L 206.543698 405.333244 
L 205.872311 399.654849 
L 205.390216 393.976455 
L 205.042017 386.878462 
L 204.963272 379.780468 
L 205.140684 372.682475 
L 205.56182 365.584482 
L 206.215035 358.486488 
L 207.089418 351.388495 
L 208.176395 344.290502 
L 209.478827 337.192508 
L 211.124878 329.43615 
L 213.03806 321.576923 
L 214.9629 314.47893 
L 217.517141 305.961338 
L 220.375021 297.326531 
L 223.458402 288.79493 
L 226.73619 280.408562 
L 230.312857 271.89097 
L 234.13405 263.373378 
L 238.195542 254.855786 
L 242.499397 246.338194 
L 247.045823 237.820602 
L 251.829976 229.30301 
L 257.375594 219.924832 
L 263.025488 210.848227 
L 268.57974 202.330635 
L 274.379268 193.813043 
L 280.428401 185.295452 
L 286.731571 176.77786 
L 293.293312 168.260268 
L 300.118271 159.742676 
L 306.709691 151.821646 
L 314.59785 142.707492 
L 322.261494 134.1899 
L 331.587192 124.252709 
L 340.626882 115.027791 
L 350.059594 105.797926 
L 359.127169 97.280334 
L 368.567383 88.762742 
L 378.403691 80.245151 
L 386.916279 73.147157 
L 397.556488 64.629565 
L 406.792067 57.531572 
L 414.628028 51.715101 
L 424.363404 44.755184 
L 434.720552 37.657191 
L 443.34528 31.978796 
L 450.033518 27.72 
L 450.033518 27.72 
" style="fill:none;stroke:#002fe8;"/>
    <path clip-path="url(#p904ab10e4b)" d="M 806.276973 27.72 
L 808.982058 33.398395 
L 810.791947 37.657191 
L 812.947024 43.335585 
L 814.817165 49.01398 
L 816.425283 54.692375 
L 817.791607 60.370769 
L 818.930784 66.049164 
L 819.850372 71.727559 
L 820.570344 77.405953 
L 821.099019 83.084348 
L 821.444257 88.762742 
L 821.629137 95.860736 
L 821.552649 102.958729 
L 821.227563 110.056722 
L 820.66583 117.154716 
L 819.878649 124.252709 
L 818.876521 131.350702 
L 817.658389 138.448696 
L 816.238411 145.546689 
L 814.619402 152.644682 
L 812.384185 161.312585 
L 809.954993 169.679866 
L 807.695256 176.77786 
L 804.748282 185.295452 
L 801.547272 193.813043 
L 798.096657 202.330635 
L 794.400766 210.848227 
L 790.459911 219.365819 
L 786.273472 227.883411 
L 781.550374 236.965522 
L 776.383267 246.338194 
L 771.437778 254.855786 
L 766.133469 263.565987 
L 759.894581 273.310569 
L 753.19864 283.247759 
L 747.19205 291.765351 
L 739.860873 301.702542 
L 733.299131 310.220134 
L 726.474172 318.737726 
L 719.882753 326.658755 
L 711.994594 335.77291 
L 704.33095 344.290502 
L 695.005251 354.227692 
L 685.965561 363.45261 
L 676.532849 372.682475 
L 667.465275 381.200067 
L 658.02506 389.717659 
L 648.188753 398.235251 
L 639.676165 405.333244 
L 629.035956 413.850836 
L 619.800377 420.948829 
L 611.964416 426.765301 
L 602.229039 433.725217 
L 591.871892 440.823211 
L 583.247163 446.501605 
L 574.287663 452.18 
L 574.287663 452.18 
" style="fill:none;stroke:#002fe8;"/>
   </g>
   <g id="LineCollection_7">
    <path clip-path="url(#p904ab10e4b)" d="M 184.469272 452.18 
L 182.657888 446.501605 
L 181.083325 440.823211 
L 179.728558 435.144816 
L 178.58493 429.466421 
L 177.633679 423.788027 
L 176.871677 418.109632 
L 176.171787 411.011639 
L 175.733026 403.913645 
L 175.543415 396.815652 
L 175.591697 389.717659 
L 175.867284 382.619666 
L 176.360207 375.521672 
L 177.06107 368.423679 
L 177.969671 361.325686 
L 179.072564 354.227692 
L 180.642833 345.7101 
L 182.48189 337.192508 
L 184.576372 328.674916 
L 186.918224 320.157324 
L 189.54121 311.522518 
L 192.624591 302.275153 
L 195.707972 293.757191 
L 198.791353 285.811207 
L 202.809589 276.149766 
L 206.589534 267.632174 
L 210.589343 259.114582 
L 214.811884 250.59699 
L 220.014888 240.659799 
L 224.715348 232.142207 
L 229.629253 223.624615 
L 235.791926 213.451915 
L 241.9628 203.750234 
L 248.587133 193.813043 
L 255.519779 183.875853 
L 261.70978 175.358261 
L 268.134003 166.840669 
L 274.796277 158.323077 
L 282.042642 149.390368 
L 290.076563 139.868294 
L 297.529228 131.350702 
L 306.709691 121.257875 
L 315.97776 111.476321 
L 325.787542 101.53913 
L 334.520306 93.021538 
L 343.710263 84.378815 
L 352.965209 75.986355 
L 362.714658 67.468763 
L 372.842726 58.951171 
L 381.588885 51.853177 
L 390.635142 44.755184 
L 400.00338 37.657191 
L 409.717661 30.559197 
L 413.705224 27.72 
L 413.705224 27.72 
" style="fill:none;stroke:#0038e3;"/>
    <path clip-path="url(#p904ab10e4b)" d="M 842.600206 27.72 
L 844.348568 33.398395 
L 845.869276 39.076789 
L 847.168253 44.755184 
L 848.263062 50.433579 
L 849.167404 56.111973 
L 849.882236 61.790368 
L 850.528905 68.888361 
L 850.916902 75.986355 
L 851.058056 83.084348 
L 850.963486 90.182341 
L 850.643653 97.280334 
L 850.108408 104.378328 
L 849.366831 111.476321 
L 848.417336 118.574314 
L 847.026622 127.091906 
L 845.660449 134.1899 
L 843.780159 142.707492 
L 842.016071 149.805485 
L 839.674219 158.323077 
L 837.051233 166.957883 
L 833.967852 176.205248 
L 830.884471 184.72321 
L 827.80109 192.669194 
L 823.782854 202.330635 
L 820.002909 210.848227 
L 816.0031 219.365819 
L 811.78056 227.883411 
L 806.577555 237.820602 
L 801.877096 246.338194 
L 796.96319 254.855786 
L 790.800517 265.028486 
L 784.629644 274.730167 
L 778.00531 284.667358 
L 771.072665 294.604548 
L 764.882663 303.12214 
L 758.45844 311.639732 
L 751.796167 320.157324 
L 744.549801 329.090034 
L 736.515881 338.612107 
L 729.063215 347.129699 
L 719.882753 357.222527 
L 710.614683 367.00408 
L 700.804901 376.941271 
L 692.072137 385.458863 
L 682.88218 394.101587 
L 673.627234 402.494047 
L 663.877785 411.011639 
L 653.749717 419.529231 
L 645.003559 426.627224 
L 635.957301 433.725217 
L 626.589063 440.823211 
L 616.874782 447.921204 
L 610.869592 452.18 
L 610.869592 452.18 
" style="fill:none;stroke:#0038e3;"/>
   </g>
   <g id="LineCollection_8">
    <path clip-path="url(#p904ab10e4b)" d="M 153.301725 452.18 
L 152.102874 446.501605 
L 150.867739 439.403612 
L 149.900377 432.305619 
L 149.192068 425.207625 
L 148.730713 418.109632 
L 148.500797 411.011639 
L 148.492623 403.913645 
L 148.697029 396.815652 
L 149.105349 389.717659 
L 149.712116 382.619666 
L 150.512531 375.521672 
L 151.712993 367.00408 
L 153.170228 358.486488 
L 154.877014 349.968896 
L 156.825747 341.451304 
L 159.006299 332.933712 
L 161.418916 324.41612 
L 164.057066 315.898528 
L 166.914409 307.380936 
L 169.98769 298.863344 
L 173.273717 290.345753 
L 176.769362 281.828161 
L 180.473336 273.310569 
L 185.059376 263.373378 
L 189.54121 254.187298 
L 194.30917 244.918595 
L 198.897156 236.401003 
L 204.958116 225.692433 
L 210.402915 216.526622 
L 215.674376 208.00903 
L 222.083381 198.071839 
L 227.801782 189.554247 
L 234.738692 179.617057 
L 240.915554 171.099465 
L 247.308354 162.581873 
L 254.292213 153.592719 
L 261.922208 144.12709 
L 269.709118 134.804283 
L 277.617271 125.672308 
L 285.239621 117.154716 
L 294.454279 107.217525 
L 304.026316 97.280334 
L 313.970419 87.343144 
L 322.800817 78.825552 
L 331.931398 70.30796 
L 341.377734 61.790368 
L 351.156493 53.272776 
L 359.570289 46.174783 
L 370.013008 37.657191 
L 379.015457 30.559197 
L 382.697152 27.72 
L 382.697152 27.72 
" style="fill:none;stroke:#0042de;"/>
    <path clip-path="url(#p904ab10e4b)" d="M 873.609239 27.72 
L 874.758612 33.398395 
L 875.939209 40.496388 
L 876.854461 47.594381 
L 877.511646 54.692375 
L 877.925911 61.790368 
L 878.11072 68.888361 
L 878.075661 75.986355 
L 877.829795 83.084348 
L 877.38169 90.182341 
L 876.735181 97.280334 
L 875.708303 105.797926 
L 874.423103 114.315518 
L 873.154164 121.413512 
L 871.408342 129.931104 
L 869.418849 138.448696 
L 867.19854 146.966288 
L 864.750924 155.48388 
L 861.718282 165.092568 
L 858.680693 173.938662 
L 855.536179 182.456254 
L 851.596417 192.393445 
L 847.374514 202.330635 
L 843.217995 211.529635 
L 838.788933 220.785418 
L 833.771362 230.722609 
L 828.472532 240.659799 
L 823.711275 249.177391 
L 817.901019 259.114582 
L 811.812206 269.051773 
L 805.44278 278.988963 
L 798.790662 288.926154 
L 791.853751 298.863344 
L 785.676889 307.380936 
L 779.284089 315.898528 
L 772.300231 324.887683 
L 764.670236 334.353311 
L 756.883326 343.676118 
L 748.975172 352.808094 
L 741.352822 361.325686 
L 732.138165 371.262876 
L 722.566128 381.200067 
L 712.622024 391.137258 
L 703.791626 399.654849 
L 694.661045 408.172441 
L 685.214709 416.690033 
L 675.435951 425.207625 
L 667.022154 432.305619 
L 656.579436 440.823211 
L 647.576987 447.921204 
L 642.037139 452.18 
L 642.037139 452.18 
" style="fill:none;stroke:#0042de;"/>
   </g>
   <g id="LineCollection_9">
    <path clip-path="url(#p904ab10e4b)" d="M 125.683688 452.18 
L 124.743231 445.082007 
L 124.048849 437.984013 
L 123.580957 430.88602 
L 123.330522 423.788027 
L 123.288982 416.690033 
L 123.448218 409.59204 
L 123.800529 402.494047 
L 124.46789 393.976455 
L 125.396838 385.458863 
L 126.575524 376.941271 
L 127.991015 368.423679 
L 129.64672 359.906087 
L 131.525352 351.388495 
L 133.626548 342.870903 
L 135.946508 334.353311 
L 138.476792 325.835719 
L 141.214447 317.318127 
L 144.66726 307.380936 
L 148.392671 297.443746 
L 151.799917 288.926154 
L 155.624019 279.897506 
L 159.85306 270.471371 
L 164.561609 260.534181 
L 168.807766 252.016589 
L 174.124305 241.843889 
L 179.451741 232.142207 
L 184.330508 223.624615 
L 190.262552 213.687425 
L 196.455781 203.750234 
L 202.912001 193.813043 
L 209.633034 183.875853 
L 216.620719 173.938662 
L 223.458402 164.568342 
L 231.420184 154.064281 
L 239.237843 144.12709 
L 248.12545 133.252345 
L 256.975347 122.83311 
L 264.45985 114.315518 
L 273.481501 104.378328 
L 282.828904 94.441137 
L 292.514429 84.503946 
L 301.093815 75.986355 
L 311.447177 66.049164 
L 320.625691 57.531572 
L 330.100286 49.01398 
L 339.885523 40.496388 
L 348.292391 33.398395 
L 355.188258 27.72 
L 355.188258 27.72 
" style="fill:none;stroke:#004bda;"/>
    <path clip-path="url(#p904ab10e4b)" d="M 901.116555 27.72 
L 902.006659 34.817993 
L 902.654996 41.915987 
L 903.078689 49.01398 
L 903.286675 56.111973 
L 903.287424 63.209967 
L 903.08897 70.30796 
L 902.698933 77.405953 
L 901.988168 85.923545 
L 901.015973 94.441137 
L 899.797278 102.958729 
L 898.340989 111.476321 
L 896.648372 119.993913 
L 894.731213 128.511505 
L 892.552092 137.194487 
L 890.239557 145.546689 
L 887.673691 154.064281 
L 884.901273 162.581873 
L 881.925184 171.099465 
L 878.199772 181.036656 
L 874.792526 189.554247 
L 870.968425 198.582895 
L 866.739384 208.00903 
L 862.030834 217.946221 
L 857.784678 226.463813 
L 852.468139 236.636513 
L 847.140702 246.338194 
L 842.261936 254.855786 
L 836.329892 264.792977 
L 830.136663 274.730167 
L 823.680443 284.667358 
L 816.95941 294.604548 
L 809.971725 304.541739 
L 803.134042 313.912059 
L 795.17226 324.41612 
L 787.354601 334.353311 
L 778.466993 345.228056 
L 769.617096 355.647291 
L 762.132594 364.164883 
L 753.110942 374.102074 
L 743.763539 384.039264 
L 734.078015 393.976455 
L 725.498628 402.494047 
L 715.145266 412.431237 
L 705.966753 420.948829 
L 696.492158 429.466421 
L 686.706921 437.984013 
L 678.300053 445.082007 
L 669.655176 452.18 
L 669.655176 452.18 
" style="fill:none;stroke:#004bda;"/>
   </g>
   <g id="LineCollection_10">
    <path clip-path="url(#p904ab10e4b)" d="M 100.620997 452.18 
L 100.080008 445.082007 
L 99.751294 437.984013 
L 99.622014 430.88602 
L 99.684836 423.788027 
L 100.003995 415.270435 
L 100.582702 406.752843 
L 101.409119 398.235251 
L 102.471716 389.717659 
L 103.765852 381.200067 
L 105.285701 372.682475 
L 107.022049 364.164883 
L 108.970519 355.647291 
L 111.129309 347.129699 
L 113.489066 338.612107 
L 116.493794 328.674916 
L 119.764433 318.737726 
L 123.295746 308.800535 
L 127.082635 298.863344 
L 131.121551 288.926154 
L 135.415192 278.988963 
L 140.207113 268.507946 
L 144.739152 259.114582 
L 149.766927 249.177391 
L 155.813816 237.820602 
L 162.180366 226.463813 
L 168.866574 215.107023 
L 174.978575 205.169833 
L 181.337811 195.232642 
L 187.945896 185.295452 
L 194.804454 175.358261 
L 201.915484 165.42107 
L 210.36422 154.064281 
L 218.036733 144.12709 
L 226.541783 133.494932 
L 235.791926 122.355796 
L 245.169365 111.476321 
L 255.334281 100.119532 
L 264.54969 90.182341 
L 274.078459 80.245151 
L 283.93186 70.30796 
L 292.646922 61.790368 
L 301.620209 53.272776 
L 310.863368 44.755184 
L 320.388762 36.237592 
L 330.209516 27.72 
L 330.209516 27.72 
" style="fill:none;stroke:#0055d4;"/>
    <path clip-path="url(#p904ab10e4b)" d="M 926.096876 27.72 
L 926.594498 34.817993 
L 926.88272 41.915987 
L 926.973005 49.01398 
L 926.872611 56.111973 
L 926.510148 64.629565 
L 925.888839 73.147157 
L 925.022355 81.664749 
L 923.921362 90.182341 
L 922.58823 98.699933 
L 921.032796 107.217525 
L 919.25951 115.735117 
L 917.219141 124.491651 
L 914.700129 134.1899 
L 912.272027 142.707492 
L 909.647121 151.225084 
L 906.339211 161.162274 
L 902.771683 171.099465 
L 898.949606 181.036656 
L 895.470892 189.554247 
L 891.177251 199.491438 
L 886.38533 209.972455 
L 881.853292 219.365819 
L 876.825517 229.30301 
L 870.778627 240.659799 
L 864.412078 252.016589 
L 857.725869 263.373378 
L 851.613869 273.310569 
L 845.254632 283.247759 
L 838.646548 293.18495 
L 831.787989 303.12214 
L 824.67696 313.059331 
L 816.228224 324.41612 
L 808.555711 334.353311 
L 800.050661 344.985469 
L 790.800517 356.124605 
L 781.423079 367.00408 
L 771.258162 378.36087 
L 762.042754 388.29806 
L 752.513985 398.235251 
L 742.660584 408.172441 
L 733.945521 416.690033 
L 724.972235 425.207625 
L 715.729075 433.725217 
L 706.203682 442.242809 
L 696.382927 450.760401 
L 694.717867 452.18 
L 694.717867 452.18 
" style="fill:none;stroke:#0055d4;"/>
   </g>
   <g id="LineCollection_11">
    <path clip-path="url(#p904ab10e4b)" d="M 77.51664 452.18 
L 77.290759 445.082007 
L 77.26498 436.564415 
L 77.49627 428.046823 
L 77.974088 419.529231 
L 78.689816 411.011639 
L 79.639714 402.494047 
L 80.809487 393.976455 
L 82.195501 385.458863 
L 83.793279 376.941271 
L 85.595307 368.423679 
L 87.948436 358.486488 
L 90.569893 348.549298 
L 93.024892 340.031706 
L 96.123795 330.094515 
L 99.472508 320.157324 
L 103.066387 310.220134 
L 106.905959 300.282943 
L 110.984782 290.345753 
L 115.540065 279.864736 
L 120.518243 269.051773 
L 125.333591 259.114582 
L 131.121249 247.757793 
L 137.21219 236.401003 
L 143.606415 225.044214 
L 150.303923 213.687425 
L 157.304714 202.330635 
L 163.680697 192.393445 
L 170.292284 182.456254 
L 177.207686 172.423819 
L 185.268708 161.162274 
L 192.637547 151.225084 
L 201.874735 139.222646 
L 210.432423 128.511505 
L 218.641857 118.574314 
L 227.115746 108.637124 
L 235.86277 98.699933 
L 246.209398 87.343144 
L 255.572366 77.405953 
L 265.237171 67.468763 
L 273.769726 58.951171 
L 284.026855 49.01398 
L 293.087805 40.496388 
L 302.40764 31.978796 
L 307.166625 27.72 
L 307.166625 27.72 
" style="fill:none;stroke:#005ed0;"/>
    <path clip-path="url(#p904ab10e4b)" d="M 949.136202 27.72 
L 949.324298 34.817993 
L 949.306476 43.335585 
L 949.033381 51.853177 
L 948.515459 60.370769 
L 947.759961 68.888361 
L 946.772798 77.405953 
L 945.56723 85.923545 
L 944.144631 94.441137 
L 942.513544 102.958729 
L 940.67676 111.476321 
L 938.28451 121.413512 
L 935.627582 131.350702 
L 932.636046 141.529751 
L 929.53971 151.225084 
L 926.118461 161.162274 
L 922.451933 171.099465 
L 918.544677 181.036656 
L 914.13576 191.591703 
L 910.017198 200.911037 
L 904.885617 211.931084 
L 899.83894 222.205017 
L 894.724331 232.142207 
L 889.380254 242.079398 
L 882.986029 253.436187 
L 876.288521 264.792977 
L 869.28773 276.149766 
L 862.911747 286.086957 
L 856.300159 296.024147 
L 849.384758 306.056582 
L 841.323735 317.318127 
L 833.954897 327.255318 
L 824.717709 339.257755 
L 816.16002 349.968896 
L 807.950587 359.906087 
L 799.476698 369.843278 
L 790.729674 379.780468 
L 780.383046 391.137258 
L 771.020077 401.074448 
L 761.355272 411.011639 
L 752.822717 419.529231 
L 742.565589 429.466421 
L 733.504638 437.984013 
L 724.184804 446.501605 
L 717.822224 452.18 
L 717.822224 452.18 
" style="fill:none;stroke:#005ed0;"/>
   </g>
   <g id="LineCollection_12">
    <path clip-path="url(#p904ab10e4b)" d="M 55.969698 452.18 
L 56.023958 443.662408 
L 56.320215 435.144816 
L 56.849041 426.627224 
L 57.607056 418.109632 
L 58.5828 409.59204 
L 59.767143 401.074448 
L 61.161608 392.556856 
L 63.036761 382.619666 
L 64.86055 374.102074 
L 67.225371 364.164883 
L 69.842856 354.227692 
L 72.708421 344.290502 
L 75.81759 334.353311 
L 79.165996 324.41612 
L 82.749376 314.47893 
L 86.563566 304.541739 
L 90.873016 293.963207 
L 95.504122 283.247759 
L 100.123159 273.105016 
L 105.474085 261.953779 
L 110.476227 252.016589 
L 116.462675 240.659799 
L 122.737626 229.30301 
L 129.30108 217.946221 
L 135.28093 208.00903 
L 142.38716 196.652241 
L 148.844804 186.71505 
L 155.624019 176.636342 
L 163.44825 165.42107 
L 171.040924 154.913542 
L 179.112489 144.12709 
L 186.79352 134.1899 
L 195.870915 122.83311 
L 205.274036 111.476321 
L 215.010957 100.119532 
L 223.809225 90.182341 
L 234.198305 78.825552 
L 243.585664 68.888361 
L 253.261103 58.951171 
L 263.234018 49.01398 
L 272.792499 39.768722 
L 284.130492 29.139599 
L 285.672401 27.72 
L 285.672401 27.72 
" style="fill:none;stroke:#0068cb;"/>
    <path clip-path="url(#p904ab10e4b)" d="M 970.630923 27.72 
L 970.535654 36.237592 
L 970.199994 44.755184 
L 969.63326 53.272776 
L 968.837592 61.790368 
L 967.826524 70.30796 
L 966.553238 79.175308 
L 965.178912 87.343144 
L 963.265151 97.280334 
L 961.083232 107.217525 
L 959.00806 115.735117 
L 956.354362 125.672308 
L 953.453521 135.609498 
L 950.309986 145.546689 
L 946.9281 155.48388 
L 943.312101 165.42107 
L 939.466129 175.358261 
L 935.391666 185.295452 
L 930.455999 196.652241 
L 925.89907 206.589431 
L 920.302522 218.181814 
L 914.647661 229.30301 
L 909.360718 239.240201 
L 903.854818 249.177391 
L 897.291363 260.534181 
L 891.311513 270.471371 
L 884.205284 281.828161 
L 877.747639 291.765351 
L 870.968425 301.844059 
L 863.144193 313.059331 
L 855.55152 323.566859 
L 847.479954 334.353311 
L 839.798924 344.290502 
L 830.721528 355.647291 
L 821.318408 367.00408 
L 811.581486 378.36087 
L 802.783218 388.29806 
L 792.394139 399.654849 
L 783.00678 409.59204 
L 773.33134 419.529231 
L 763.358426 429.466421 
L 753.799945 438.71168 
L 742.461951 449.340803 
L 739.369166 452.18 
L 739.369166 452.18 
" style="fill:none;stroke:#0068cb;"/>
   </g>
   <g id="LineCollection_13">
    <path clip-path="url(#p904ab10e4b)" d="M 50.789062 356.951219 
L 53.872444 346.473014 
L 56.955825 336.772879 
L 60.192198 327.255318 
L 63.792505 317.318127 
L 67.613851 307.380936 
L 71.652503 297.443746 
L 75.908186 287.506555 
L 81.03611 276.149766 
L 85.752298 266.212575 
L 91.400361 254.855786 
L 97.325063 243.498997 
L 103.526405 232.142207 
L 110.004387 220.785418 
L 116.759009 209.428629 
L 123.79027 198.071839 
L 130.17169 188.134649 
L 137.123732 177.669934 
L 144.575722 166.840669 
L 152.666909 155.48388 
L 161.790781 143.145495 
L 169.735961 132.770301 
L 177.57817 122.83311 
L 186.831207 111.476321 
L 196.399912 100.119532 
L 206.2918 88.762742 
L 215.218545 78.825552 
L 224.407135 68.888361 
L 233.865601 58.951171 
L 243.602309 49.01398 
L 253.625971 39.076789 
L 263.542356 29.524785 
L 265.450648 27.72 
L 265.450648 27.72 
" style="fill:none;stroke:#0071c6;"/>
    <path clip-path="url(#p904ab10e4b)" d="M 972.72 132.007387 
L 969.636619 141.707523 
L 966.400246 151.225084 
L 962.799938 161.162274 
L 958.978592 171.099465 
L 954.939941 181.036656 
L 950.684258 190.973846 
L 945.556333 202.330635 
L 940.840145 212.267826 
L 935.192083 223.624615 
L 929.26738 234.981405 
L 923.066038 246.338194 
L 916.588056 257.694983 
L 909.833435 269.051773 
L 902.802173 280.408562 
L 896.420754 290.345753 
L 889.468711 300.810468 
L 882.016721 311.639732 
L 873.925534 322.996522 
L 864.801663 335.334907 
L 856.856482 345.7101 
L 849.014274 355.647291 
L 839.761236 367.00408 
L 830.192531 378.36087 
L 820.300643 389.717659 
L 811.373899 399.654849 
L 802.185309 409.59204 
L 792.726842 419.529231 
L 782.990135 429.466421 
L 772.966473 439.403612 
L 763.050088 448.955616 
L 759.637286 452.18 
L 759.637286 452.18 
" style="fill:none;stroke:#0071c6;"/>
   </g>
   <g id="LineCollection_14">
    <path clip-path="url(#p904ab10e4b)" d="M 50.789062 306.716149 
L 55.219336 296.024147 
L 60.183913 284.667358 
L 65.421308 273.310569 
L 70.222113 263.373378 
L 75.957091 252.016589 
L 81.957783 240.659799 
L 88.224187 229.30301 
L 94.756305 217.946221 
L 101.554136 206.589431 
L 108.617681 195.232642 
L 115.540065 184.498781 
L 122.589389 173.938662 
L 130.95697 161.834297 
L 139.586506 149.805485 
L 146.952009 139.868294 
L 155.635439 128.511505 
L 164.874162 116.82739 
L 174.124305 105.506371 
L 183.456204 94.441137 
L 193.342478 83.084348 
L 203.546876 71.727559 
L 212.744401 61.790368 
L 222.200866 51.853177 
L 231.923962 41.915987 
L 241.958688 31.942474 
L 246.297224 27.72 
L 246.297224 27.72 
" style="fill:none;stroke:#007bc2;"/>
    <path clip-path="url(#p904ab10e4b)" d="M 972.72 179.270488 
L 968.300487 189.554247 
L 963.167074 200.911037 
L 957.763671 212.267826 
L 952.816167 222.205017 
L 946.914642 233.561806 
L 940.74788 244.918595 
L 934.315881 256.275385 
L 927.618645 267.632174 
L 920.656171 278.988963 
L 914.13576 289.247815 
L 906.873366 300.282943 
L 898.718855 312.23894 
L 890.0966 324.41612 
L 882.823884 334.353311 
L 874.051806 345.964522 
L 864.801663 357.796456 
L 855.054945 369.843278 
L 845.556711 381.200067 
L 835.749882 392.556856 
L 826.910401 402.494047 
L 816.502318 413.850836 
L 807.120757 423.788027 
L 796.967279 434.241716 
L 786.113655 445.082007 
L 778.82755 452.18 
L 778.82755 452.18 
" style="fill:none;stroke:#007bc2;"/>
   </g>
   <g id="LineCollection_15">
    <path clip-path="url(#p904ab10e4b)" d="M 50.789062 269.830619 
L 56.07334 259.114582 
L 61.176169 249.177391 
L 67.247075 237.820602 
L 73.573598 226.463813 
L 80.155738 215.107023 
L 86.993495 203.750234 
L 94.087776 192.393445 
L 102.382164 179.617057 
L 110.030947 168.260268 
L 118.623446 155.944393 
L 127.166416 144.12709 
L 134.576116 134.1899 
L 143.301506 122.83311 
L 153.456795 110.056722 
L 162.786049 98.699933 
L 172.408507 87.343144 
L 182.330625 75.986355 
L 191.26562 66.049164 
L 200.442547 56.111973 
L 209.868254 46.174783 
L 220.375021 35.401308 
L 228.05971 27.72 
L 228.05971 27.72 
" style="fill:none;stroke:#0084bd;"/>
    <path clip-path="url(#p904ab10e4b)" d="M 972.72 214.961285 
L 967.627105 225.044214 
L 961.651725 236.401003 
L 955.421169 247.757793 
L 948.935436 259.114582 
L 942.194527 270.471371 
L 935.719427 280.992601 
L 927.936031 293.18495 
L 920.302522 304.716704 
L 911.646992 317.318127 
L 904.592478 327.255318 
L 895.635473 339.473355 
L 886.38533 351.661086 
L 876.560507 364.164883 
L 867.339608 375.521672 
L 857.827615 386.878462 
L 848.018131 398.235251 
L 837.904568 409.59204 
L 828.797304 419.529231 
L 819.443505 429.466421 
L 809.300804 439.950531 
L 798.532734 450.760401 
L 797.09773 452.18 
L 797.09773 452.18 
" style="fill:none;stroke:#0084bd;"/>
   </g>
   <g id="LineCollection_16">
    <path clip-path="url(#p904ab10e4b)" d="M 972.72 244.862742 
L 966.274805 256.275385 
L 958.762424 269.051773 
L 951.82353 280.408562 
L 944.635322 291.765351 
L 936.24712 304.541739 
L 928.521399 315.898528 
L 920.302522 327.591058 
L 911.052379 340.304297 
L 901.632703 352.808094 
L 891.670746 365.584482 
L 882.527082 376.941271 
L 873.104112 388.29806 
L 863.395924 399.654849 
L 853.396439 411.011639 
L 844.400511 420.948829 
L 835.169423 430.88602 
L 824.717709 441.837626 
L 814.565391 452.18 
L 814.565391 452.18 
" style="fill:none;stroke:#008eb8;"/>
    <path clip-path="url(#p904ab10e4b)" d="M 50.789062 239.240201 
L 50.789062 239.240201 
L 57.884957 226.463813 
L 64.453228 215.107023 
L 71.268581 203.750234 
L 78.539492 192.063968 
L 86.579046 179.617057 
L 94.175151 168.260268 
L 103.206541 155.229458 
L 112.456684 142.364213 
L 121.71476 129.931104 
L 131.563014 117.154716 
L 140.603242 105.797926 
L 149.920842 94.441137 
L 159.521673 83.084348 
L 169.411762 71.727559 
L 179.597306 60.370769 
L 189.54121 49.597295 
L 200.895705 37.657191 
L 210.616659 27.72 
L 210.616659 27.72 
" style="fill:none;stroke:#008eb8;"/>
   </g>
   <g id="LineCollection_17">
    <path clip-path="url(#p904ab10e4b)" d="M 972.72 271.11702 
L 965.276408 283.247759 
L 958.060197 294.604548 
L 950.600639 305.961338 
L 941.886189 318.781294 
L 932.636046 331.90512 
L 923.385903 344.577842 
L 913.95876 357.06689 
L 903.988446 369.843278 
L 894.84646 381.200067 
L 885.434186 392.556856 
L 875.746087 403.913645 
L 865.776477 415.270435 
L 855.55152 426.5921 
L 844.959835 437.984013 
L 833.967852 449.475735 
L 831.332764 452.18 
L 831.332764 452.18 
" style="fill:none;stroke:#0097b3;"/>
    <path clip-path="url(#p904ab10e4b)" d="M 50.789062 212.524786 
L 57.797882 200.911037 
L 64.894157 189.554247 
L 72.37273 177.980522 
L 80.779212 165.42107 
L 88.638829 154.064281 
L 97.039778 142.302889 
L 106.289922 129.771865 
L 115.920348 117.154716 
L 126.001352 104.378328 
L 135.244066 93.021538 
L 144.758896 81.664749 
L 154.551424 70.30796 
L 164.627385 58.951171 
L 174.124305 48.537877 
L 185.669372 36.237592 
L 193.876017 27.72 
L 193.876017 27.72 
" style="fill:none;stroke:#0097b3;"/>
   </g>
   <g id="LineCollection_18">
    <path clip-path="url(#p904ab10e4b)" d="M 972.72 294.804121 
L 964.481439 307.380936 
L 956.794092 318.737726 
L 947.858703 331.514114 
L 938.615038 344.290502 
L 929.058629 357.06689 
L 919.184921 369.843278 
L 910.138412 381.200067 
L 900.831729 392.556856 
L 891.259718 403.913645 
L 881.417092 415.270435 
L 871.298419 426.627224 
L 861.718282 437.09571 
L 850.195066 449.340803 
L 847.473484 452.18 
L 847.473484 452.18 
" style="fill:none;stroke:#00a1ae;"/>
    <path clip-path="url(#p904ab10e4b)" d="M 50.789062 188.501984 
L 58.356477 176.77786 
L 66.205968 165.004175 
L 74.725579 152.644682 
L 82.805574 141.287893 
L 91.127903 129.931104 
L 100.789568 117.154716 
L 110.770069 104.378328 
L 119.913637 93.021538 
L 129.319082 81.664749 
L 138.991599 70.30796 
L 148.936519 58.951171 
L 158.7074 48.092237 
L 169.677221 36.237592 
L 177.755079 27.72 
L 177.755079 27.72 
" style="fill:none;stroke:#00a1ae;"/>
   </g>
   <g id="LineCollection_19">
    <path clip-path="url(#p904ab10e4b)" d="M 972.72 316.554264 
L 964.351162 328.674916 
L 956.26813 340.031706 
L 946.89068 352.808094 
L 938.300188 364.164883 
L 928.341163 376.941271 
L 919.225049 388.29806 
L 909.854925 399.654849 
L 900.2259 411.011639 
L 890.332955 422.368428 
L 880.170627 433.725217 
L 868.402322 446.501605 
L 863.055775 452.18 
L 863.055775 452.18 
" style="fill:none;stroke:#00aaaa;"/>
    <path clip-path="url(#p904ab10e4b)" d="M 50.789062 166.491934 
L 59.270732 154.064281 
L 67.265582 142.707492 
L 76.542248 129.931104 
L 86.122682 117.154716 
L 94.896926 105.797926 
L 105.06485 93.021538 
L 114.370929 81.664749 
L 123.934261 70.30796 
L 134.040351 58.630982 
L 145.138514 46.174783 
L 155.624019 34.730801 
L 162.192183 27.72 
L 162.192183 27.72 
" style="fill:none;stroke:#00aaaa;"/>
   </g>
   <g id="LineCollection_20">
    <path clip-path="url(#p904ab10e4b)" d="M 972.72 336.778051 
L 972.424684 337.192508 
L 971.410492 338.612107 
L 970.394713 340.031706 
L 969.636619 341.089129 
L 969.375789 341.451304 
L 968.350714 342.870903 
L 967.324083 344.290502 
L 966.553238 345.3544 
L 966.294346 345.7101 
L 965.258404 347.129699 
L 964.220937 348.549298 
L 963.469857 349.575093 
L 963.180206 349.968896 
L 962.133414 351.388495 
L 961.085127 352.808094 
L 960.386476 353.752394 
L 960.03322 354.227692 
L 958.975595 355.647291 
L 957.916506 357.06689 
L 957.303095 357.887449 
L 956.85324 358.486488 
L 955.784799 359.906087 
L 954.714923 361.325686 
L 954.219714 361.981361 
L 953.640113 362.745284 
L 952.560873 364.164883 
L 951.48023 365.584482 
L 951.136333 366.035197 
L 950.393689 367.00408 
L 949.303668 368.423679 
L 948.212275 369.843278 
L 948.052952 370.049986 
L 947.113815 371.262876 
L 946.013032 372.682475 
L 944.96957 374.026402 
L 944.910547 374.102074 
L 943.800337 375.521672 
L 942.68881 376.941271 
L 941.886189 377.964702 
L 941.574068 378.36087 
L 940.453102 379.780468 
L 939.330849 381.200067 
L 938.802808 381.866713 
L 938.203657 382.619666 
L 937.071953 384.039264 
L 935.938994 385.458863 
L 935.719427 385.733338 
L 934.799157 386.878462 
L 933.656735 388.29806 
L 932.636046 389.564824 
L 932.51233 389.717659 
L 931.36041 391.137258 
L 930.207291 392.556856 
L 929.552665 393.361393 
L 929.049888 393.976455 
L 927.887259 395.396054 
L 926.723461 396.815652 
L 926.469284 397.125015 
L 925.552861 398.235251 
L 924.379543 399.654849 
L 923.385903 400.855605 
L 923.203964 401.074448 
L 922.021089 402.494047 
L 920.837102 403.913645 
L 920.302522 404.553465 
L 919.647963 405.333244 
L 918.454408 406.752843 
L 917.259775 408.172441 
L 917.219141 408.220611 
L 916.05687 409.59204 
L 914.852658 411.011639 
L 914.13576 411.855496 
L 913.644346 412.431237 
L 912.43052 413.850836 
L 911.215673 415.270435 
L 911.052379 415.460835 
L 909.99322 416.690033 
L 908.76875 418.109632 
L 907.968998 419.035579 
L 907.540616 419.529231 
L 906.306485 420.948829 
L 905.071392 422.368428 
L 904.885617 422.581506 
L 903.828734 423.788027 
L 902.583972 425.207625 
L 901.802236 426.097976 
L 901.335351 426.627224 
L 900.080883 428.046823 
L 898.825512 429.466421 
L 898.718855 429.586773 
L 897.561978 430.88602 
L 896.296893 432.305619 
L 895.635473 433.046753 
L 895.027104 433.725217 
L 893.752269 435.144816 
L 892.552092 436.48027 
L 892.476111 436.564415 
L 891.191489 437.984013 
L 889.906053 439.403612 
L 889.468711 439.885791 
L 888.614399 440.823211 
L 887.319168 442.242809 
L 886.38533 443.265242 
L 886.020841 443.662408 
L 884.71578 445.082007 
L 883.409966 446.501605 
L 883.301949 446.618795 
L 882.095731 447.921204 
L 880.780078 449.340803 
L 880.218568 449.945791 
L 879.458859 450.760401 
L 878.133333 452.18 
" style="fill:none;stroke:#00b4a5;"/>
    <path clip-path="url(#p904ab10e4b)" d="M 50.789062 146.060511 
L 51.151267 145.546689 
L 52.15456 144.12709 
L 53.15947 142.707492 
L 53.872444 141.702351 
L 54.16776 141.287893 
L 55.181952 139.868294 
L 56.19773 138.448696 
L 56.955825 137.391273 
L 57.216654 137.029097 
L 58.241729 135.609498 
L 59.26836 134.1899 
L 60.039206 133.126002 
L 60.298098 132.770301 
L 61.334039 131.350702 
L 62.371507 129.931104 
L 63.122587 128.905309 
L 63.412238 128.511505 
L 64.45903 127.091906 
L 65.507317 125.672308 
L 66.205968 124.728007 
L 66.559223 124.252709 
L 67.616848 122.83311 
L 68.675938 121.413512 
L 69.289349 120.592952 
L 69.739204 119.993913 
L 70.807645 118.574314 
L 71.87752 117.154716 
L 72.37273 116.499041 
L 72.95233 115.735117 
L 74.03157 114.315518 
L 75.112213 112.89592 
L 75.456111 112.445205 
L 76.198755 111.476321 
L 77.288775 110.056722 
L 78.380168 108.637124 
L 78.539492 108.430416 
L 79.478629 107.217525 
L 80.579412 105.797926 
L 81.622873 104.453999 
L 81.681896 104.378328 
L 82.792106 102.958729 
L 83.903634 101.53913 
L 84.706254 100.515699 
L 85.018376 100.119532 
L 86.139342 98.699933 
L 87.261594 97.280334 
L 87.789635 96.613689 
L 88.388787 95.860736 
L 89.52049 94.441137 
L 90.653449 93.021538 
L 90.873016 92.747063 
L 91.793287 91.60194 
L 92.935708 90.182341 
L 93.956397 88.915577 
L 94.080113 88.762742 
L 95.232033 87.343144 
L 96.385153 85.923545 
L 97.039778 85.119009 
L 97.542555 84.503946 
L 98.705185 83.084348 
L 99.868982 81.664749 
L 100.123159 81.355387 
L 101.039582 80.245151 
L 102.212901 78.825552 
L 103.206541 77.624796 
L 103.388479 77.405953 
L 104.571355 75.986355 
L 105.755342 74.566756 
L 106.289922 73.926937 
L 106.944481 73.147157 
L 108.138035 71.727559 
L 109.332669 70.30796 
L 109.373303 70.25979 
L 110.535574 68.888361 
L 111.739786 67.468763 
L 112.456684 66.624906 
L 112.948098 66.049164 
L 114.161923 64.629565 
L 115.37677 63.209967 
L 115.540065 63.019567 
L 116.599223 61.790368 
L 117.823694 60.370769 
L 118.623446 59.444823 
L 119.051828 58.951171 
L 120.285959 57.531572 
L 121.521052 56.111973 
L 121.706827 55.898895 
L 122.763709 54.692375 
L 124.008472 53.272776 
L 124.790208 52.382426 
L 125.257092 51.853177 
L 126.51156 50.433579 
L 127.766931 49.01398 
L 127.873589 48.893629 
L 129.030466 47.594381 
L 130.295551 46.174783 
L 130.95697 45.433649 
L 131.565339 44.755184 
L 132.840174 43.335585 
L 134.040351 42.000131 
L 134.116333 41.915987 
L 135.400954 40.496388 
L 136.686391 39.076789 
L 137.123732 38.594611 
L 137.978045 37.657191 
L 139.273275 36.237592 
L 140.207113 35.215159 
L 140.571602 34.817993 
L 141.876663 33.398395 
L 143.182478 31.978796 
L 143.290494 31.861606 
L 144.496713 30.559197 
L 145.812365 29.139599 
L 146.373875 28.534611 
L 147.133585 27.72 
" style="fill:none;stroke:#00b4a5;"/>
   </g>
   <g id="LineCollection_21">
    <path clip-path="url(#p904ab10e4b)" d="M 972.72 355.75767 
L 971.747619 357.06689 
L 970.691699 358.486488 
L 969.636619 359.903034 
L 969.634335 359.906087 
L 968.569295 361.325686 
L 967.502846 362.745284 
L 966.553238 364.007486 
L 966.434294 364.164883 
L 965.358713 365.584482 
L 964.281753 367.00408 
L 963.469857 368.072531 
L 963.201836 368.423679 
L 962.115731 369.843278 
L 961.028276 371.262876 
L 960.386476 372.09916 
L 959.936816 372.682475 
L 958.840204 374.102074 
L 957.742271 375.521672 
L 957.303095 376.088331 
L 956.639088 376.941271 
L 955.531986 378.36087 
L 954.423592 379.780468 
L 954.219714 380.040972 
L 953.308505 381.200067 
L 952.190932 382.619666 
L 951.136333 383.957645 
L 951.071711 384.039264 
L 949.944921 385.458863 
L 948.816894 386.878462 
L 948.052952 387.838353 
L 947.685442 388.29806 
L 946.548188 389.717659 
L 945.409724 391.137258 
L 944.96957 391.685022 
L 944.265856 392.556856 
L 943.118155 393.976455 
L 941.969274 395.396054 
L 941.886189 395.498469 
L 940.812802 396.815652 
L 939.654673 398.235251 
L 938.802808 399.27799 
L 938.49354 399.654849 
L 937.326129 401.074448 
L 936.157592 402.494047 
L 935.719427 403.025342 
L 934.983515 403.913645 
L 933.805685 405.333244 
L 932.636046 406.741643 
L 932.626703 406.752843 
L 931.439545 408.172441 
L 930.251316 409.59204 
L 929.552665 410.425464 
L 929.059043 411.011639 
L 927.861477 412.431237 
L 926.66287 413.850836 
L 926.469284 414.079626 
L 925.45711 415.270435 
L 924.249156 416.690033 
L 923.385903 417.703248 
L 923.038083 418.109632 
L 921.820747 419.529231 
L 920.602425 420.948829 
L 920.302522 421.297598 
L 919.377508 422.368428 
L 918.149796 423.788027 
L 917.219141 424.862905 
L 916.919302 425.207625 
L 915.682165 426.627224 
L 914.444098 428.046823 
L 914.13576 428.399702 
L 913.199396 429.466421 
L 911.951895 430.88602 
L 911.052379 431.908453 
L 910.701348 432.305619 
L 909.444379 433.725217 
L 908.186537 435.144816 
L 907.968998 435.38985 
L 906.921408 436.564415 
L 905.65409 437.984013 
L 904.885617 438.843733 
L 904.38284 439.403612 
L 903.106011 440.823211 
L 901.828366 442.242809 
L 901.802236 442.271781 
L 900.542154 443.662408 
L 899.254991 445.082007 
L 898.718855 445.672413 
L 897.962373 446.501605 
L 896.665657 447.921204 
L 895.635473 449.047994 
L 895.366518 449.340803 
L 894.060216 450.760401 
L 892.753182 452.18 
" style="fill:none;stroke:#00bda0;"/>
    <path clip-path="url(#p904ab10e4b)" d="M 50.789062 126.909431 
L 51.698614 125.672308 
L 52.74399 124.252709 
L 53.790825 122.83311 
L 53.872444 122.722731 
L 54.844824 121.413512 
L 55.900744 119.993913 
L 56.955825 118.577367 
L 56.958109 118.574314 
L 58.023149 117.154716 
L 59.089597 115.735117 
L 60.039206 114.472915 
L 60.158149 114.315518 
L 61.23373 112.89592 
L 62.310691 111.476321 
L 63.122587 110.40787 
L 63.390607 110.056722 
L 64.476713 108.637124 
L 65.564168 107.217525 
L 66.205968 106.381242 
L 66.655628 105.797926 
L 67.75224 104.378328 
L 68.850173 102.958729 
L 69.289349 102.39207 
L 69.953356 101.53913 
L 71.060458 100.119532 
L 72.168851 98.699933 
L 72.37273 98.439429 
L 73.283938 97.280334 
L 74.401512 95.860736 
L 75.456111 94.522757 
L 75.520733 94.441137 
L 76.647522 93.021538 
L 77.77555 91.60194 
L 78.539492 90.642048 
L 78.907001 90.182341 
L 80.044256 88.762742 
L 81.182719 87.343144 
L 81.622873 86.795379 
L 82.326588 85.923545 
L 83.474289 84.503946 
L 84.623169 83.084348 
L 84.706254 82.981932 
L 85.779642 81.664749 
L 86.93777 80.245151 
L 87.789635 79.202411 
L 88.098903 78.825552 
L 89.266315 77.405953 
L 90.434852 75.986355 
L 90.873016 75.455059 
L 91.608929 74.566756 
L 92.786759 73.147157 
L 93.956397 71.738759 
L 93.965741 71.727559 
L 95.152898 70.30796 
L 96.341127 68.888361 
L 97.039778 68.054937 
L 97.5334 67.468763 
L 98.730966 66.049164 
L 99.929574 64.629565 
L 100.123159 64.400776 
L 101.135333 63.209967 
L 102.343287 61.790368 
L 103.206541 60.777153 
L 103.554361 60.370769 
L 104.771697 58.951171 
L 105.990018 57.531572 
L 106.289922 57.182803 
L 107.214936 56.111973 
L 108.442648 54.692375 
L 109.373303 53.617497 
L 109.673141 53.272776 
L 110.910279 51.853177 
L 112.148346 50.433579 
L 112.456684 50.080699 
L 113.393048 49.01398 
L 114.640549 47.594381 
L 115.540065 46.571948 
L 115.891096 46.174783 
L 117.148065 44.755184 
L 118.405907 43.335585 
L 118.623446 43.090551 
L 119.671035 41.915987 
L 120.938353 40.496388 
L 121.706827 39.636668 
L 122.209604 39.076789 
L 123.486433 37.657191 
L 124.764078 36.237592 
L 124.790208 36.208621 
L 126.050289 34.817993 
L 127.337452 33.398395 
L 127.873589 32.807989 
L 128.630071 31.978796 
L 129.926786 30.559197 
L 130.95697 29.432407 
L 131.225925 29.139599 
L 132.532228 27.72 
" style="fill:none;stroke:#00bda0;"/>
   </g>
   <g id="LineCollection_22">
    <path clip-path="url(#p904ab10e4b)" d="M 972.72 373.69689 
L 972.408977 374.102074 
L 971.316838 375.521672 
L 970.223398 376.941271 
L 969.636619 377.701667 
L 969.12571 378.36087 
L 968.023326 379.780468 
L 966.919669 381.200067 
L 966.553238 381.670399 
L 965.810444 382.619666 
L 964.697831 384.039264 
L 963.583973 385.458863 
L 963.469857 385.603952 
L 962.463039 386.878462 
L 961.340214 388.29806 
L 960.386476 389.502311 
L 960.215177 389.717659 
L 959.083353 391.137258 
L 957.950335 392.556856 
L 957.303095 393.366449 
L 956.813275 393.976455 
L 955.671247 395.396054 
L 954.528052 396.815652 
L 954.219714 397.197745 
L 953.378792 398.235251 
L 952.226576 399.654849 
L 951.136333 400.996662 
L 951.072851 401.074448 
L 949.911583 402.494047 
L 948.749199 403.913645 
L 948.052952 404.762648 
L 947.582952 405.333244 
L 946.411505 406.752843 
L 945.23897 408.172441 
L 944.96957 408.497937 
L 944.060019 409.59204 
L 942.878411 411.011639 
L 941.886189 412.202358 
L 941.694618 412.431237 
L 940.503906 413.850836 
L 939.312157 415.270435 
L 938.802808 415.87613 
L 938.115329 416.690033 
L 936.914465 418.109632 
L 935.719427 419.52115 
L 935.712555 419.529231 
L 934.502544 420.948829 
L 933.29155 422.368428 
L 932.636046 423.135706 
L 932.076266 423.788027 
L 930.856115 425.207625 
L 929.635011 426.627224 
L 929.552665 426.722748 
L 928.406162 428.046823 
L 927.175892 429.466421 
L 926.469284 430.280642 
L 925.94156 430.88602 
L 924.702093 432.305619 
L 923.461724 433.725217 
L 923.385903 433.81181 
L 922.21348 435.144816 
L 920.963905 436.564415 
L 920.302522 437.314737 
L 919.70992 437.984013 
L 918.451106 439.403612 
L 917.219141 440.791953 
L 917.191279 440.823211 
L 915.923194 442.242809 
L 914.654286 443.662408 
L 914.13576 444.241625 
L 913.380029 445.082007 
L 912.101843 446.501605 
L 911.052379 447.66614 
L 910.821475 447.921204 
L 909.533977 449.340803 
L 908.245711 450.760401 
L 907.968998 451.064784 
L 906.950548 452.18 
" style="fill:none;stroke:#00c79c;"/>
    <path clip-path="url(#p904ab10e4b)" d="M 50.789062 108.825228 
L 50.93206 108.637124 
L 52.013937 107.217525 
L 53.097143 105.797926 
L 53.872444 104.783511 
L 54.183467 104.378328 
L 55.275605 102.958729 
L 56.369045 101.53913 
L 56.955825 100.778734 
L 57.466734 100.119532 
L 58.569118 98.699933 
L 59.672775 97.280334 
L 60.039206 96.810003 
L 60.782 95.860736 
L 61.894612 94.441137 
L 63.00847 93.021538 
L 63.122587 92.876449 
L 64.129405 91.60194 
L 65.252229 90.182341 
L 66.205968 88.978091 
L 66.377267 88.762742 
L 67.50909 87.343144 
L 68.642109 85.923545 
L 69.289349 85.113952 
L 69.779169 84.503946 
L 70.921197 83.084348 
L 72.064392 81.664749 
L 72.37273 81.282657 
L 73.213652 80.245151 
L 74.365867 78.825552 
L 75.456111 77.483739 
L 75.519592 77.405953 
L 76.680861 75.986355 
L 77.843245 74.566756 
L 78.539492 73.717753 
L 79.009492 73.147157 
L 80.180939 71.727559 
L 81.353473 70.30796 
L 81.622873 69.982464 
L 82.532425 68.888361 
L 83.714032 67.468763 
L 84.706254 66.278044 
L 84.897825 66.049164 
L 86.088538 64.629565 
L 87.280286 63.209967 
L 87.789635 62.604271 
L 88.477115 61.790368 
L 89.677978 60.370769 
L 90.873016 58.959252 
L 90.879889 58.951171 
L 92.0899 57.531572 
L 93.300893 56.111973 
L 93.956397 55.344695 
L 94.516178 54.692375 
L 95.736328 53.272776 
L 96.957433 51.853177 
L 97.039778 51.757653 
L 98.186282 50.433579 
L 99.416551 49.01398 
L 100.123159 48.199759 
L 100.650883 47.594381 
L 101.890351 46.174783 
L 103.13072 44.755184 
L 103.206541 44.668591 
L 104.378964 43.335585 
L 105.628539 41.915987 
L 106.289922 41.165665 
L 106.882523 40.496388 
L 108.141337 39.076789 
L 109.373303 37.688448 
L 109.401165 37.657191 
L 110.66925 36.237592 
L 111.938157 34.817993 
L 112.456684 34.238776 
L 113.212414 33.398395 
L 114.490601 31.978796 
L 115.540065 30.814261 
L 115.770969 30.559197 
L 117.058467 29.139599 
L 118.346732 27.72 
" style="fill:none;stroke:#00c79c;"/>
   </g>
   <g id="LineCollection_23">
    <path clip-path="url(#p904ab10e4b)" d="M 972.72 390.751104 
L 972.414301 391.137258 
L 971.288116 392.556856 
L 970.16075 393.976455 
L 969.636619 394.635259 
L 969.028752 395.396054 
L 967.892595 396.815652 
L 966.755283 398.235251 
L 966.553238 398.486895 
L 965.611461 399.654849 
L 964.465348 401.074448 
L 963.469857 402.306039 
L 963.317236 402.494047 
L 962.162291 403.913645 
L 961.00624 405.333244 
L 960.386476 406.093067 
L 959.845998 406.752843 
L 958.681105 408.172441 
L 957.515132 409.59204 
L 957.303095 409.849661 
L 956.342588 411.011639 
L 955.167765 412.431237 
L 954.219714 413.575471 
L 953.990573 413.850836 
L 952.806868 415.270435 
L 951.622131 416.690033 
L 951.136333 417.27114 
L 950.432324 418.109632 
L 949.238696 419.529231 
L 948.052952 420.938255 
L 948.044014 420.948829 
L 946.841464 422.368428 
L 945.637933 423.788027 
L 944.96957 424.575235 
L 944.430314 425.207625 
L 943.217853 426.627224 
L 942.004438 428.046823 
L 941.886189 428.184875 
L 940.783701 429.466421 
L 939.561347 430.88602 
L 938.802808 431.765808 
L 938.335357 432.305619 
L 937.104031 433.725217 
L 935.871804 435.144816 
L 935.719427 435.320012 
L 934.632367 436.564415 
L 933.39116 437.984013 
L 932.636046 438.846554 
L 932.146227 439.403612 
L 930.89601 440.823211 
L 929.644942 442.242809 
L 929.552665 442.347304 
L 928.386225 443.662408 
L 927.126139 445.082007 
L 926.469284 445.821011 
L 925.861677 446.501605 
L 924.592542 447.921204 
L 923.385903 449.269949 
L 923.322234 449.340803 
L 922.044019 450.760401 
L 920.765029 452.18 
" style="fill:none;stroke:#00d097;"/>
    <path clip-path="url(#p904ab10e4b)" d="M 50.789062 91.64674 
L 50.824201 91.60194 
L 51.940396 90.182341 
L 53.0578 88.762742 
L 53.872444 87.729297 
L 54.178143 87.343144 
L 55.304327 85.923545 
L 56.431694 84.503946 
L 56.955825 83.845142 
L 57.563691 83.084348 
L 58.699848 81.664749 
L 59.837161 80.245151 
L 60.039206 79.993507 
L 60.980982 78.825552 
L 62.127095 77.405953 
L 63.122587 76.174363 
L 63.275207 75.986355 
L 64.430152 74.566756 
L 65.586204 73.147157 
L 66.205968 72.387334 
L 66.746446 71.727559 
L 67.911339 70.30796 
L 69.077311 68.888361 
L 69.289349 68.63074 
L 70.249855 67.468763 
L 71.424679 66.049164 
L 72.37273 64.90493 
L 72.60187 64.629565 
L 73.785576 63.209967 
L 74.970312 61.790368 
L 75.456111 61.209261 
L 76.16012 60.370769 
L 77.353747 58.951171 
L 78.539492 57.542146 
L 78.548429 57.531572 
L 79.75098 56.111973 
L 80.95451 54.692375 
L 81.622873 53.905166 
L 82.162129 53.272776 
L 83.374591 51.853177 
L 84.588006 50.433579 
L 84.706254 50.295526 
L 85.808742 49.01398 
L 87.031097 47.594381 
L 87.789635 46.714593 
L 88.257087 46.174783 
L 89.488412 44.755184 
L 90.72064 43.335585 
L 90.873016 43.16039 
L 91.960077 41.915987 
L 93.201284 40.496388 
L 93.956397 39.633847 
L 94.446217 39.076789 
L 95.696434 37.657191 
L 96.947502 36.237592 
L 97.039778 36.133097 
L 98.206219 34.817993 
L 99.466305 33.398395 
L 100.123159 32.659391 
L 100.730767 31.978796 
L 101.999902 30.559197 
L 103.206541 29.210452 
L 103.270209 29.139599 
L 104.548424 27.72 
" style="fill:none;stroke:#00d097;"/>
   </g>
   <g id="LineCollection_24">
    <path clip-path="url(#p904ab10e4b)" d="M 972.72 407.039416 
L 971.796715 408.172441 
L 970.638502 409.59204 
L 969.636619 410.818658 
L 969.47833 411.011639 
L 968.311458 412.431237 
L 967.143535 413.850836 
L 966.553238 414.567196 
L 965.971304 415.270435 
L 964.794713 416.690033 
L 963.617097 418.109632 
L 963.469857 418.286756 
L 962.43264 419.529231 
L 961.246348 420.948829 
L 960.386476 421.976546 
L 960.057204 422.368428 
L 958.862205 423.788027 
L 957.666229 425.207625 
L 957.303095 425.637885 
L 956.464555 426.627224 
L 955.259864 428.046823 
L 954.219714 429.271323 
L 954.053281 429.466421 
L 952.839846 430.88602 
L 951.625481 432.305619 
L 951.136333 432.876517 
L 950.406058 433.725217 
L 949.182941 435.144816 
L 948.052952 436.455215 
L 947.958383 436.564415 
L 946.726483 437.984013 
L 945.493701 439.403612 
L 944.96957 440.006248 
L 944.255988 440.823211 
L 943.014417 442.242809 
L 941.886189 443.531755 
L 941.771336 443.662408 
L 940.520944 445.082007 
L 939.26972 446.501605 
L 938.802808 447.030524 
L 938.013162 447.921204 
L 936.753111 449.340803 
L 935.719427 450.504327 
L 935.490947 450.760401 
L 934.222038 452.18 
" style="fill:none;stroke:#00da92;"/>
    <path clip-path="url(#p904ab10e4b)" d="M 50.789062 75.251157 
L 51.341825 74.566756 
L 52.490313 73.147157 
L 53.639898 71.727559 
L 53.872444 71.440985 
L 54.795728 70.30796 
L 55.953942 68.888361 
L 56.955825 67.661743 
L 57.114114 67.468763 
L 58.280986 66.049164 
L 59.448909 64.629565 
L 60.039206 63.913206 
L 60.62114 63.209967 
L 61.79773 61.790368 
L 62.975347 60.370769 
L 63.122587 60.193645 
L 64.159803 58.951171 
L 65.346095 57.531572 
L 66.205968 56.503855 
L 66.53524 56.111973 
L 67.730238 54.692375 
L 68.926214 53.272776 
L 69.289349 52.842516 
L 70.127889 51.853177 
L 71.332579 50.433579 
L 72.37273 49.209078 
L 72.539162 49.01398 
L 73.752598 47.594381 
L 74.966963 46.174783 
L 75.456111 45.603885 
L 76.186385 44.755184 
L 77.409503 43.335585 
L 78.539492 42.025187 
L 78.634061 41.915987 
L 79.865961 40.496388 
L 81.098742 39.076789 
L 81.622873 38.474153 
L 82.336456 37.657191 
L 83.578027 36.237592 
L 84.706254 34.948647 
L 84.821108 34.817993 
L 86.071499 33.398395 
L 87.322723 31.978796 
L 87.789635 31.449877 
L 88.579282 30.559197 
L 89.839333 29.139599 
L 90.873016 27.976075 
L 91.101497 27.72 
" style="fill:none;stroke:#00da92;"/>
   </g>
   <g id="LineCollection_25">
    <path clip-path="url(#p904ab10e4b)" d="M 972.72 422.656426 
L 971.774543 423.788027 
L 970.587151 425.207625 
L 969.636619 426.342796 
L 969.397465 426.627224 
L 968.201546 428.046823 
L 967.004672 429.466421 
L 966.553238 430.000977 
L 965.802706 430.88602 
L 964.597298 432.305619 
L 963.469857 433.632253 
L 963.390521 433.725217 
L 962.17655 435.144816 
L 960.96167 436.564415 
L 960.386476 437.235543 
L 959.742315 437.984013 
L 958.518865 439.403612 
L 957.303095 440.813266 
L 957.294482 440.823211 
L 956.062432 442.242809 
L 954.829519 443.662408 
L 954.219714 444.363566 
L 953.592256 445.082007 
L 952.350737 446.501605 
L 951.136333 447.88922 
L 951.108223 447.921204 
L 949.858068 449.340803 
L 948.607098 450.760401 
L 948.052952 451.388348 
L 947.351396 452.18 
" style="fill:none;stroke:#00e38e;"/>
    <path clip-path="url(#p904ab10e4b)" d="M 50.789062 59.539033 
L 51.276024 58.951171 
L 52.453918 57.531572 
L 53.632814 56.111973 
L 53.872444 55.823976 
L 54.8179 54.692375 
L 56.005293 53.272776 
L 56.955825 52.137605 
L 57.194979 51.853177 
L 58.390898 50.433579 
L 59.587771 49.01398 
L 60.039206 48.479424 
L 60.789737 47.594381 
L 61.995145 46.174783 
L 63.122587 44.848149 
L 63.201923 44.755184 
L 64.415894 43.335585 
L 65.630774 41.915987 
L 66.205968 41.244858 
L 66.850128 40.496388 
L 68.073579 39.076789 
L 69.289349 37.667135 
L 69.297962 37.657191 
L 70.530012 36.237592 
L 71.762925 34.817993 
L 72.37273 34.116835 
L 73.000187 33.398395 
L 74.241707 31.978796 
L 75.456111 30.591181 
L 75.48422 30.559197 
L 76.734375 29.139599 
L 77.985346 27.72 
" style="fill:none;stroke:#00e38e;"/>
   </g>
   <g id="LineCollection_26">
    <path clip-path="url(#p904ab10e4b)" d="M 972.72 437.678935 
L 972.459551 437.984013 
L 971.245431 439.403612 
L 970.03042 440.823211 
L 969.636619 441.282564 
L 968.810037 442.242809 
L 967.586633 443.662408 
L 966.553238 444.860423 
L 966.361317 445.082007 
L 965.129491 446.501605 
L 963.896819 447.921204 
L 963.469857 448.412138 
L 962.658885 449.340803 
L 961.417784 450.760401 
L 960.386476 451.938982 
L 960.174705 452.18 
" style="fill:none;stroke:#00ed88;"/>
    <path clip-path="url(#p904ab10e4b)" d="M 50.789062 44.431762 
L 51.719104 43.335585 
L 52.924837 41.915987 
L 53.872444 40.801466 
L 54.132893 40.496388 
L 55.347013 39.076789 
L 56.562023 37.657191 
L 56.955825 37.197837 
L 57.782406 36.237592 
L 59.005811 34.817993 
L 60.039206 33.619979 
L 60.231126 33.398395 
L 61.462953 31.978796 
L 62.695625 30.559197 
L 63.122587 30.068263 
L 63.933558 29.139599 
L 65.174659 27.72 
" style="fill:none;stroke:#00ed88;"/>
   </g>
   <g id="LineCollection_27">
    <path clip-path="url(#p904ab10e4b)" d="M 972.72 452.170488 
L 972.711711 452.18 
" style="fill:none;stroke:#00f684;"/>
    <path clip-path="url(#p904ab10e4b)" d="M 50.789062 29.864906 
L 51.417312 29.139599 
L 52.648585 27.72 
" style="fill:none;stroke:#00f684;"/>
   </g>
   <g id="LineCollection_28"/>
   <g id="line2d_25">
    <defs>
     <path d="M 0 -7.5 
L -1.683855 -2.317627 
L -7.132924 -2.317627 
L -2.724534 0.885255 
L -4.408389 6.067627 
L -0 2.864745 
L 4.408389 6.067627 
L 2.724534 0.885255 
L 7.132924 -2.317627 
L 1.683855 -2.317627 
z
" id="m6dcb626666" style="stroke:#ff0000;stroke-linejoin:bevel;"/>
    </defs>
    <g clip-path="url(#p904ab10e4b)">
     <use style="fill-opacity:0;stroke:#ff0000;stroke-linejoin:bevel;" x="204.958116" xlink:href="#m6dcb626666" y="381.200067"/>
    </g>
   </g>
   <g id="line2d_26">
    <defs>
     <path d="M 0 7.5 
C 1.989023 7.5 3.896849 6.709753 5.303301 5.303301 
C 6.709753 3.896849 7.5 1.989023 7.5 0 
C 7.5 -1.989023 6.709753 -3.896849 5.303301 -5.303301 
C 3.896849 -6.709753 1.989023 -7.5 0 -7.5 
C -1.989023 -7.5 -3.896849 -6.709753 -5.303301 -5.303301 
C -6.709753 -3.896849 -7.5 -1.989023 -7.5 0 
C -7.5 1.989023 -6.709753 3.896849 -5.303301 5.303301 
C -3.896849 6.709753 -1.989023 7.5 0 7.5 
z
" id="m72871d8bd7" style="stroke:#0000ff;"/>
    </defs>
    <g clip-path="url(#p904ab10e4b)">
     <use style="fill-opacity:0;stroke:#0000ff;" x="436.211695" xlink:href="#m72871d8bd7" y="381.200067"/>
    </g>
   </g>
   <g id="line2d_27">
    <defs>
     <path d="M 0 -7.5 
L -1.683855 -2.317627 
L -7.132924 -2.317627 
L -2.724534 0.885255 
L -4.408389 6.067627 
L -0 2.864745 
L 4.408389 6.067627 
L 2.724534 0.885255 
L 7.132924 -2.317627 
L 1.683855 -2.317627 
z
" id="m25977d7674" style="stroke:#008000;stroke-linejoin:bevel;"/>
    </defs>
    <g clip-path="url(#p904ab10e4b)">
     <use style="fill:#008000;stroke:#008000;stroke-linejoin:bevel;" x="436.211695" xlink:href="#m25977d7674" y="274.730167"/>
    </g>
   </g>
   <g id="line2d_28">
    <path clip-path="url(#p904ab10e4b)" d="M 50.789062 239.240201 
L 972.72 239.240201 
" style="fill:none;stroke:#000000;stroke-linecap:square;"/>
   </g>
   <g id="line2d_29">
    <path clip-path="url(#p904ab10e4b)" d="M 513.296222 452.18 
L 513.296222 27.72 
" style="fill:none;stroke:#000000;stroke-linecap:square;"/>
   </g>
   <g id="patch_5">
    <path d="M 50.789062 452.18 
L 50.789062 27.72 
" style="fill:none;stroke:#000000;stroke-linecap:square;stroke-linejoin:miter;stroke-width:0.8;"/>
   </g>
   <g id="patch_6">
    <path d="M 972.72 452.18 
L 972.72 27.72 
" style="fill:none;stroke:#000000;stroke-linecap:square;stroke-linejoin:miter;stroke-width:0.8;"/>
   </g>
   <g id="patch_7">
    <path d="M 50.789062 452.18 
L 972.72 452.18 
" style="fill:none;stroke:#000000;stroke-linecap:square;stroke-linejoin:miter;stroke-width:0.8;"/>
   </g>
   <g id="patch_8">
    <path d="M 50.789062 27.72 
L 972.72 27.72 
" style="fill:none;stroke:#000000;stroke-linecap:square;stroke-linejoin:miter;stroke-width:0.8;"/>
   </g>
   <g id="text_15">
    <!-- $ \mathbf{x}_0 $ -->
    <g transform="translate(180.291067 381.200067)scale(0.1 -0.1)">
     <defs>
      <path d="M 22.21875 27.984375 
L 2.484375 54.6875 
L 21 54.6875 
L 32.171875 38.484375 
L 43.5 54.6875 
L 62.015625 54.6875 
L 42.28125 28.078125 
L 62.984375 0 
L 44.484375 0 
L 32.171875 17.28125 
L 20.015625 0 
L 1.515625 0 
z
" id="DejaVuSans-Bold-120"/>
      <path d="M 31.78125 66.40625 
Q 24.171875 66.40625 20.328125 58.90625 
Q 16.5 51.421875 16.5 36.375 
Q 16.5 21.390625 20.328125 13.890625 
Q 24.171875 6.390625 31.78125 6.390625 
Q 39.453125 6.390625 43.28125 13.890625 
Q 47.125 21.390625 47.125 36.375 
Q 47.125 51.421875 43.28125 58.90625 
Q 39.453125 66.40625 31.78125 66.40625 
z
M 31.78125 74.21875 
Q 44.046875 74.21875 50.515625 64.515625 
Q 56.984375 54.828125 56.984375 36.375 
Q 56.984375 17.96875 50.515625 8.265625 
Q 44.046875 -1.421875 31.78125 -1.421875 
Q 19.53125 -1.421875 13.0625 8.265625 
Q 6.59375 17.96875 6.59375 36.375 
Q 6.59375 54.828125 13.0625 64.515625 
Q 19.53125 74.21875 31.78125 74.21875 
z
" id="DejaVuSans-48"/>
     </defs>
     <use transform="translate(0 0.3125)" xlink:href="#DejaVuSans-Bold-120"/>
     <use transform="translate(65.458984 -16.09375)scale(0.7)" xlink:href="#DejaVuSans-48"/>
    </g>
   </g>
   <g id="text_16">
    <!-- $ \mathbf{x}_1 $ -->
    <g transform="translate(460.878744 381.200067)scale(0.1 -0.1)">
     <use transform="translate(0 0.3125)" xlink:href="#DejaVuSans-Bold-120"/>
     <use transform="translate(65.458984 -16.09375)scale(0.7)" xlink:href="#DejaVuSans-49"/>
    </g>
   </g>
   <g id="text_17">
    <!-- $ \mathbf{x}^* $ -->
    <g transform="translate(420.79479 263.373378)scale(0.1 -0.1)">
     <defs>
      <path d="M 47.015625 60.890625 
L 29.5 51.421875 
L 47.015625 41.890625 
L 44.1875 37.109375 
L 27.78125 47.015625 
L 27.78125 28.609375 
L 22.21875 28.609375 
L 22.21875 47.015625 
L 5.8125 37.109375 
L 2.984375 41.890625 
L 20.515625 51.421875 
L 2.984375 60.890625 
L 5.8125 65.71875 
L 22.21875 55.8125 
L 22.21875 74.21875 
L 27.78125 74.21875 
L 27.78125 55.8125 
L 44.1875 65.71875 
z
" id="DejaVuSans-42"/>
     </defs>
     <use transform="translate(0 0.765625)" xlink:href="#DejaVuSans-Bold-120"/>
     <use transform="translate(79.09668 39.046875)scale(0.7)" xlink:href="#DejaVuSans-42"/>
    </g>
   </g>
   <g id="text_18">
    <!-- Contours of $ f(\mathbf{x}) = 4 x_1^2 + x_2^2 - 2 x_1 x_2 $  -->
    <g transform="translate(410.894531 21.72)scale(0.12 -0.12)">
     <defs>
      <path d="M 67.40625 50.203125 
C 66 62.203125 56.40625 73.703125 37.90625 73.703125 
C 17 73.703125 4.40625 58.40625 4.40625 36.296875 
C 4.40625 8.703125 20.40625 -1.90625 36.703125 -1.90625 
C 42.09375 -1.90625 64.09375 -0.703125 68.09375 26.40625 
L 58.703125 26.40625 
C 55.40625 9.703125 44.5 6.703125 38.203125 6.703125 
C 20.40625 6.703125 14.40625 19.703125 14.40625 36.59375 
C 14.40625 55.5 24.90625 65.09375 37.90625 65.09375 
C 44.796875 65.09375 55.296875 62.796875 58 50.203125 
z
" id="Helvetica-67"/>
      <path d="M 3.5 26.203125 
C 3.5 12.703125 11.09375 -1.40625 27.796875 -1.40625 
C 44.5 -1.40625 52.09375 12.703125 52.09375 26.203125 
C 52.09375 39.703125 44.5 53.796875 27.796875 53.796875 
C 11.09375 53.796875 3.5 39.703125 3.5 26.203125 
z
M 12.59375 26.203125 
C 12.59375 33.203125 15.203125 46.203125 27.796875 46.203125 
C 40.40625 46.203125 43 33.203125 43 26.203125 
C 43 19.203125 40.40625 6.203125 27.796875 6.203125 
C 15.203125 6.203125 12.59375 19.203125 12.59375 26.203125 
z
" id="Helvetica-111"/>
      <path d="M 49.09375 35.59375 
C 49.09375 50.5 38.90625 53.796875 30.796875 53.796875 
C 21.796875 53.796875 16.90625 47.703125 15 44.90625 
L 14.796875 44.90625 
L 14.796875 52.296875 
L 6.5 52.296875 
L 6.5 0 
L 15.296875 0 
L 15.296875 28.5 
C 15.296875 42.703125 24.09375 45.90625 29.09375 45.90625 
C 37.703125 45.90625 40.296875 41.296875 40.296875 32.203125 
L 40.296875 0 
L 49.09375 0 
z
" id="Helvetica-110"/>
      <path d="M 25.703125 45 
L 25.703125 52.296875 
L 17.296875 52.296875 
L 17.296875 66.90625 
L 8.5 66.90625 
L 8.5 52.296875 
L 1.40625 52.296875 
L 1.40625 45 
L 8.5 45 
L 8.5 10.5 
C 8.5 4.203125 10.40625 -0.703125 19.09375 -0.703125 
C 20 -0.703125 22.5 -0.296875 25.703125 0 
L 25.703125 6.90625 
L 22.59375 6.90625 
C 20.796875 6.90625 17.296875 6.90625 17.296875 11 
L 17.296875 45 
z
" id="Helvetica-116"/>
      <path d="M 48.90625 0 
L 48.90625 52.296875 
L 40.09375 52.296875 
L 40.09375 23.5 
C 40.09375 15.90625 36.796875 6.09375 25.703125 6.09375 
C 20 6.09375 15.59375 9 15.59375 17.59375 
L 15.59375 52.296875 
L 6.796875 52.296875 
L 6.796875 14.703125 
C 6.796875 2.203125 16.09375 -1.5 23.796875 -1.5 
C 32.203125 -1.5 36.703125 1.703125 40.40625 7.796875 
L 40.59375 7.59375 
L 40.59375 0 
z
" id="Helvetica-117"/>
      <path d="M 16.5 30.40625 
C 16.5 38 21.703125 44.40625 29.90625 44.40625 
L 33.203125 44.40625 
L 33.203125 53.5 
C 32.5 53.703125 32 53.796875 30.90625 53.796875 
C 24.296875 53.796875 19.703125 49.703125 16.203125 43.59375 
L 16 43.59375 
L 16 52.296875 
L 7.703125 52.296875 
L 7.703125 0 
L 16.5 0 
z
" id="Helvetica-114"/>
      <path d="M 44.703125 37.40625 
C 44.703125 40 43.40625 53.796875 24.703125 53.796875 
C 14.40625 53.796875 4.90625 48.59375 4.90625 37.09375 
C 4.90625 29.90625 9.703125 26.203125 17 24.40625 
L 27.203125 21.90625 
C 34.703125 20 37.59375 18.59375 37.59375 14.40625 
C 37.59375 8.59375 31.90625 6.09375 25.59375 6.09375 
C 13.203125 6.09375 12 12.703125 11.703125 16.796875 
L 3.203125 16.796875 
C 3.5 10.5 5 -1.5 25.703125 -1.5 
C 37.5 -1.5 46.40625 5 46.40625 15.796875 
C 46.40625 22.90625 42.59375 26.90625 31.703125 29.59375 
L 22.90625 31.796875 
C 16.09375 33.5 13.40625 34.5 13.40625 38.796875 
C 13.40625 45.296875 21.09375 46.203125 23.796875 46.203125 
C 34.90625 46.203125 36.09375 40.703125 36.203125 37.40625 
z
" id="Helvetica-115"/>
      <path id="Helvetica-32"/>
      <path d="M 26.203125 45 
L 26.203125 52.296875 
L 17.40625 52.296875 
L 17.40625 58.796875 
C 17.40625 63 18.796875 64.90625 22.59375 64.90625 
C 23.703125 64.90625 25.09375 64.796875 26.203125 64.703125 
L 26.203125 72.59375 
C 24.796875 72.703125 23.5 72.796875 22.203125 72.796875 
C 13.59375 72.796875 8.59375 69.203125 8.59375 61.296875 
L 8.59375 52.296875 
L 1.40625 52.296875 
L 1.40625 45 
L 8.59375 45 
L 8.59375 0 
L 17.40625 0 
L 17.40625 45 
z
" id="Helvetica-102"/>
      <path d="M 47.796875 75.984375 
L 46.390625 68.5 
L 37.796875 68.5 
Q 32.90625 68.5 30.6875 66.578125 
Q 28.46875 64.65625 27.390625 59.515625 
L 26.421875 54.6875 
L 41.21875 54.6875 
L 39.890625 47.703125 
L 25.09375 47.703125 
L 15.828125 0 
L 6.78125 0 
L 16.109375 47.703125 
L 7.515625 47.703125 
L 8.796875 54.6875 
L 17.390625 54.6875 
L 18.109375 58.5 
Q 19.96875 68.171875 24.625 72.078125 
Q 29.296875 75.984375 39.3125 75.984375 
z
" id="DejaVuSans-Oblique-102"/>
      <path d="M 31 75.875 
Q 24.46875 64.65625 21.28125 53.65625 
Q 18.109375 42.671875 18.109375 31.390625 
Q 18.109375 20.125 21.3125 9.0625 
Q 24.515625 -2 31 -13.1875 
L 23.1875 -13.1875 
Q 15.875 -1.703125 12.234375 9.375 
Q 8.59375 20.453125 8.59375 31.390625 
Q 8.59375 42.28125 12.203125 53.3125 
Q 15.828125 64.359375 23.1875 75.875 
z
" id="DejaVuSans-40"/>
      <path d="M 8.015625 75.875 
L 15.828125 75.875 
Q 23.140625 64.359375 26.78125 53.3125 
Q 30.421875 42.28125 30.421875 31.390625 
Q 30.421875 20.453125 26.78125 9.375 
Q 23.140625 -1.703125 15.828125 -13.1875 
L 8.015625 -13.1875 
Q 14.5 -2 17.703125 9.0625 
Q 20.90625 20.125 20.90625 31.390625 
Q 20.90625 42.671875 17.703125 53.65625 
Q 14.5 64.65625 8.015625 75.875 
z
" id="DejaVuSans-41"/>
      <path d="M 10.59375 45.40625 
L 73.1875 45.40625 
L 73.1875 37.203125 
L 10.59375 37.203125 
z
M 10.59375 25.484375 
L 73.1875 25.484375 
L 73.1875 17.1875 
L 10.59375 17.1875 
z
" id="DejaVuSans-61"/>
      <path d="M 37.796875 64.3125 
L 12.890625 25.390625 
L 37.796875 25.390625 
z
M 35.203125 72.90625 
L 47.609375 72.90625 
L 47.609375 25.390625 
L 58.015625 25.390625 
L 58.015625 17.1875 
L 47.609375 17.1875 
L 47.609375 0 
L 37.796875 0 
L 37.796875 17.1875 
L 4.890625 17.1875 
L 4.890625 26.703125 
z
" id="DejaVuSans-52"/>
      <path d="M 46 62.703125 
L 46 35.5 
L 73.1875 35.5 
L 73.1875 27.203125 
L 46 27.203125 
L 46 0 
L 37.796875 0 
L 37.796875 27.203125 
L 10.59375 27.203125 
L 10.59375 35.5 
L 37.796875 35.5 
L 37.796875 62.703125 
z
" id="DejaVuSans-43"/>
      <path d="M 10.59375 35.5 
L 73.1875 35.5 
L 73.1875 27.203125 
L 10.59375 27.203125 
z
" id="DejaVuSans-8722"/>
     </defs>
     <use transform="translate(0 0.765625)" xlink:href="#Helvetica-67"/>
     <use transform="translate(72.199982 0.765625)" xlink:href="#Helvetica-111"/>
     <use transform="translate(127.799973 0.765625)" xlink:href="#Helvetica-110"/>
     <use transform="translate(183.399963 0.765625)" xlink:href="#Helvetica-116"/>
     <use transform="translate(211.199951 0.765625)" xlink:href="#Helvetica-111"/>
     <use transform="translate(266.799942 0.765625)" xlink:href="#Helvetica-117"/>
     <use transform="translate(322.399933 0.765625)" xlink:href="#Helvetica-114"/>
     <use transform="translate(355.699921 0.765625)" xlink:href="#Helvetica-115"/>
     <use transform="translate(405.699905 0.765625)" xlink:href="#Helvetica-32"/>
     <use transform="translate(433.499893 0.765625)" xlink:href="#Helvetica-111"/>
     <use transform="translate(489.099884 0.765625)" xlink:href="#Helvetica-102"/>
     <use transform="translate(516.899872 0.765625)" xlink:href="#Helvetica-32"/>
     <use transform="translate(544.69986 0.765625)" xlink:href="#DejaVuSans-Oblique-102"/>
     <use transform="translate(579.904938 0.765625)" xlink:href="#DejaVuSans-40"/>
     <use transform="translate(618.91861 0.765625)" xlink:href="#DejaVuSans-Bold-120"/>
     <use transform="translate(683.420563 0.765625)" xlink:href="#DejaVuSans-41"/>
     <use transform="translate(741.916656 0.765625)" xlink:href="#DejaVuSans-61"/>
     <use transform="translate(845.188141 0.765625)" xlink:href="#DejaVuSans-52"/>
     <use transform="translate(908.811188 0.765625)" xlink:href="#DejaVuSans-Oblique-120"/>
     <use transform="translate(972.457021 39.046875)scale(0.7)" xlink:href="#DejaVuSans-50"/>
     <use transform="translate(967.990875 -26.578125)scale(0.7)" xlink:href="#DejaVuSans-49"/>
     <use transform="translate(1039.209951 0.765625)" xlink:href="#DejaVuSans-43"/>
     <use transform="translate(1142.481435 0.765625)" xlink:href="#DejaVuSans-Oblique-120"/>
     <use transform="translate(1206.127268 39.046875)scale(0.7)" xlink:href="#DejaVuSans-50"/>
     <use transform="translate(1201.661123 -26.578125)scale(0.7)" xlink:href="#DejaVuSans-50"/>
     <use transform="translate(1272.880198 0.765625)" xlink:href="#DejaVuSans-8722"/>
     <use transform="translate(1376.151683 0.765625)" xlink:href="#DejaVuSans-50"/>
     <use transform="translate(1439.774729 0.765625)" xlink:href="#DejaVuSans-Oblique-120"/>
     <use transform="translate(1498.954417 -15.640625)scale(0.7)" xlink:href="#DejaVuSans-49"/>
     <use transform="translate(1546.224925 0.765625)" xlink:href="#DejaVuSans-Oblique-120"/>
     <use transform="translate(1605.404612 -15.640625)scale(0.7)" xlink:href="#DejaVuSans-50"/>
     <use transform="translate(1652.67512 0.765625)" xlink:href="#Helvetica-32"/>
    </g>
   </g>
  </g>
 </g>
 <defs>
  <clipPath id="p904ab10e4b">
   <rect height="424.46" width="921.930937" x="50.789062" y="27.72"/>
  </clipPath>
 </defs>
</svg>
