<?xml version="1.0" encoding="utf-8" standalone="no"?>
<!DOCTYPE svg PUBLIC "-//W3C//DTD SVG 1.1//EN"
  "http://www.w3.org/Graphics/SVG/1.1/DTD/svg11.dtd">
<!-- Created with matplotlib (https://matplotlib.org/) -->
<svg height="432pt" version="1.1" viewBox="0 0 576 432" width="576pt" xmlns="http://www.w3.org/2000/svg" xmlns:xlink="http://www.w3.org/1999/xlink">
 <metadata>
  <rdf:RDF xmlns:cc="http://creativecommons.org/ns#" xmlns:dc="http://purl.org/dc/elements/1.1/" xmlns:rdf="http://www.w3.org/1999/02/22-rdf-syntax-ns#">
   <cc:Work>
    <dc:type rdf:resource="http://purl.org/dc/dcmitype/StillImage"/>
    <dc:date>2021-01-02T13:02:53.002227</dc:date>
    <dc:format>image/svg+xml</dc:format>
    <dc:creator>
     <cc:Agent>
      <dc:title>Matplotlib v3.3.2, https://matplotlib.org/</dc:title>
     </cc:Agent>
    </dc:creator>
   </cc:Work>
  </rdf:RDF>
 </metadata>
 <defs>
  <style type="text/css">*{stroke-linecap:butt;stroke-linejoin:round;}</style>
 </defs>
 <g id="figure_1">
  <g id="patch_1">
   <path d="M 0 432 
L 576 432 
L 576 0 
L 0 0 
z
" style="fill:#ffffff;"/>
  </g>
  <g id="axes_1">
   <g id="patch_2">
    <path d="M 49.809063 384.505781 
L 563.04 384.505781 
L 563.04 27.549375 
L 49.809063 27.549375 
z
" style="fill:#ffffff;"/>
   </g>
   <g id="matplotlib.axis_1">
    <g id="xtick_1">
     <g id="text_1">
      <!-- 1950 -->
      <g style="fill:#262626;" transform="translate(37.575 401.879375)scale(0.11 -0.11)">
       <defs>
        <path d="M 37.25 0 
L 28.46875 0 
L 28.46875 56 
Q 25.296875 52.984375 20.140625 49.953125 
Q 14.984375 46.921875 10.890625 45.40625 
L 10.890625 53.90625 
Q 18.265625 57.375 23.78125 62.296875 
Q 29.296875 67.234375 31.59375 71.875 
L 37.25 71.875 
z
" id="ArialMT-49"/>
        <path d="M 5.46875 16.546875 
L 13.921875 17.328125 
Q 14.984375 11.375 18.015625 8.6875 
Q 21.046875 6 25.78125 6 
Q 29.828125 6 32.875 7.859375 
Q 35.9375 9.71875 37.890625 12.8125 
Q 39.84375 15.921875 41.15625 21.1875 
Q 42.484375 26.46875 42.484375 31.9375 
Q 42.484375 32.515625 42.4375 33.6875 
Q 39.796875 29.5 35.234375 26.875 
Q 30.671875 24.265625 25.34375 24.265625 
Q 16.453125 24.265625 10.296875 30.703125 
Q 4.15625 37.15625 4.15625 47.703125 
Q 4.15625 58.59375 10.578125 65.234375 
Q 17 71.875 26.65625 71.875 
Q 33.640625 71.875 39.421875 68.109375 
Q 45.21875 64.359375 48.21875 57.390625 
Q 51.21875 50.4375 51.21875 37.25 
Q 51.21875 23.53125 48.234375 15.40625 
Q 45.265625 7.28125 39.375 3.03125 
Q 33.5 -1.21875 25.59375 -1.21875 
Q 17.1875 -1.21875 11.859375 3.4375 
Q 6.546875 8.109375 5.46875 16.546875 
z
M 41.453125 48.140625 
Q 41.453125 55.71875 37.421875 60.15625 
Q 33.40625 64.59375 27.734375 64.59375 
Q 21.875 64.59375 17.53125 59.8125 
Q 13.1875 55.03125 13.1875 47.40625 
Q 13.1875 40.578125 17.3125 36.296875 
Q 21.4375 32.03125 27.484375 32.03125 
Q 33.59375 32.03125 37.515625 36.296875 
Q 41.453125 40.578125 41.453125 48.140625 
z
" id="ArialMT-57"/>
        <path d="M 4.15625 18.75 
L 13.375 19.53125 
Q 14.40625 12.796875 18.140625 9.390625 
Q 21.875 6 27.15625 6 
Q 33.5 6 37.890625 10.78125 
Q 42.28125 15.578125 42.28125 23.484375 
Q 42.28125 31 38.0625 35.34375 
Q 33.84375 39.703125 27 39.703125 
Q 22.75 39.703125 19.328125 37.765625 
Q 15.921875 35.84375 13.96875 32.765625 
L 5.71875 33.84375 
L 12.640625 70.609375 
L 48.25 70.609375 
L 48.25 62.203125 
L 19.671875 62.203125 
L 15.828125 42.96875 
Q 22.265625 47.46875 29.34375 47.46875 
Q 38.71875 47.46875 45.15625 40.96875 
Q 51.609375 34.46875 51.609375 24.265625 
Q 51.609375 14.546875 45.953125 7.46875 
Q 39.0625 -1.21875 27.15625 -1.21875 
Q 17.390625 -1.21875 11.203125 4.25 
Q 5.03125 9.71875 4.15625 18.75 
z
" id="ArialMT-53"/>
        <path d="M 4.15625 35.296875 
Q 4.15625 48 6.765625 55.734375 
Q 9.375 63.484375 14.515625 67.671875 
Q 19.671875 71.875 27.484375 71.875 
Q 33.25 71.875 37.59375 69.546875 
Q 41.9375 67.234375 44.765625 62.859375 
Q 47.609375 58.5 49.21875 52.21875 
Q 50.828125 45.953125 50.828125 35.296875 
Q 50.828125 22.703125 48.234375 14.96875 
Q 45.65625 7.234375 40.5 3 
Q 35.359375 -1.21875 27.484375 -1.21875 
Q 17.140625 -1.21875 11.234375 6.203125 
Q 4.15625 15.140625 4.15625 35.296875 
z
M 13.1875 35.296875 
Q 13.1875 17.671875 17.3125 11.828125 
Q 21.4375 6 27.484375 6 
Q 33.546875 6 37.671875 11.859375 
Q 41.796875 17.71875 41.796875 35.296875 
Q 41.796875 52.984375 37.671875 58.78125 
Q 33.546875 64.59375 27.390625 64.59375 
Q 21.34375 64.59375 17.71875 59.46875 
Q 13.1875 52.9375 13.1875 35.296875 
z
" id="ArialMT-48"/>
       </defs>
       <use xlink:href="#ArialMT-49"/>
       <use x="55.615234" xlink:href="#ArialMT-57"/>
       <use x="111.230469" xlink:href="#ArialMT-53"/>
       <use x="166.845703" xlink:href="#ArialMT-48"/>
      </g>
     </g>
    </g>
    <g id="xtick_2">
     <g id="text_2">
      <!-- 1960 -->
      <g style="fill:#262626;" transform="translate(124.563294 401.879375)scale(0.11 -0.11)">
       <defs>
        <path d="M 49.75 54.046875 
L 41.015625 53.375 
Q 39.84375 58.546875 37.703125 60.890625 
Q 34.125 64.65625 28.90625 64.65625 
Q 24.703125 64.65625 21.53125 62.3125 
Q 17.390625 59.28125 14.984375 53.46875 
Q 12.59375 47.65625 12.5 36.921875 
Q 15.671875 41.75 20.265625 44.09375 
Q 24.859375 46.4375 29.890625 46.4375 
Q 38.671875 46.4375 44.84375 39.96875 
Q 51.03125 33.5 51.03125 23.25 
Q 51.03125 16.5 48.125 10.71875 
Q 45.21875 4.9375 40.140625 1.859375 
Q 35.0625 -1.21875 28.609375 -1.21875 
Q 17.625 -1.21875 10.6875 6.859375 
Q 3.765625 14.9375 3.765625 33.5 
Q 3.765625 54.25 11.421875 63.671875 
Q 18.109375 71.875 29.4375 71.875 
Q 37.890625 71.875 43.28125 67.140625 
Q 48.6875 62.40625 49.75 54.046875 
z
M 13.875 23.1875 
Q 13.875 18.65625 15.796875 14.5 
Q 17.71875 10.359375 21.1875 8.171875 
Q 24.65625 6 28.46875 6 
Q 34.03125 6 38.03125 10.484375 
Q 42.046875 14.984375 42.046875 22.703125 
Q 42.046875 30.125 38.078125 34.390625 
Q 34.125 38.671875 28.125 38.671875 
Q 22.171875 38.671875 18.015625 34.390625 
Q 13.875 30.125 13.875 23.1875 
z
" id="ArialMT-54"/>
       </defs>
       <use xlink:href="#ArialMT-49"/>
       <use x="55.615234" xlink:href="#ArialMT-57"/>
       <use x="111.230469" xlink:href="#ArialMT-54"/>
       <use x="166.845703" xlink:href="#ArialMT-48"/>
      </g>
     </g>
    </g>
    <g id="xtick_3">
     <g id="text_3">
      <!-- 1970 -->
      <g style="fill:#262626;" transform="translate(211.551589 401.879375)scale(0.11 -0.11)">
       <defs>
        <path d="M 4.734375 62.203125 
L 4.734375 70.65625 
L 51.078125 70.65625 
L 51.078125 63.8125 
Q 44.234375 56.546875 37.515625 44.484375 
Q 30.8125 32.421875 27.15625 19.671875 
Q 24.515625 10.6875 23.78125 0 
L 14.75 0 
Q 14.890625 8.453125 18.0625 20.40625 
Q 21.234375 32.375 27.171875 43.484375 
Q 33.109375 54.59375 39.796875 62.203125 
z
" id="ArialMT-55"/>
       </defs>
       <use xlink:href="#ArialMT-49"/>
       <use x="55.615234" xlink:href="#ArialMT-57"/>
       <use x="111.230469" xlink:href="#ArialMT-55"/>
       <use x="166.845703" xlink:href="#ArialMT-48"/>
      </g>
     </g>
    </g>
    <g id="xtick_4">
     <g id="text_4">
      <!-- 1980 -->
      <g style="fill:#262626;" transform="translate(298.539883 401.879375)scale(0.11 -0.11)">
       <defs>
        <path d="M 17.671875 38.8125 
Q 12.203125 40.828125 9.5625 44.53125 
Q 6.9375 48.25 6.9375 53.421875 
Q 6.9375 61.234375 12.546875 66.546875 
Q 18.171875 71.875 27.484375 71.875 
Q 36.859375 71.875 42.578125 66.421875 
Q 48.296875 60.984375 48.296875 53.171875 
Q 48.296875 48.1875 45.671875 44.5 
Q 43.0625 40.828125 37.75 38.8125 
Q 44.34375 36.671875 47.78125 31.875 
Q 51.21875 27.09375 51.21875 20.453125 
Q 51.21875 11.28125 44.71875 5.03125 
Q 38.234375 -1.21875 27.640625 -1.21875 
Q 17.046875 -1.21875 10.546875 5.046875 
Q 4.046875 11.328125 4.046875 20.703125 
Q 4.046875 27.6875 7.59375 32.390625 
Q 11.140625 37.109375 17.671875 38.8125 
z
M 15.921875 53.71875 
Q 15.921875 48.640625 19.1875 45.40625 
Q 22.46875 42.1875 27.6875 42.1875 
Q 32.765625 42.1875 36.015625 45.375 
Q 39.265625 48.578125 39.265625 53.21875 
Q 39.265625 58.0625 35.90625 61.359375 
Q 32.5625 64.65625 27.59375 64.65625 
Q 22.5625 64.65625 19.234375 61.421875 
Q 15.921875 58.203125 15.921875 53.71875 
z
M 13.09375 20.65625 
Q 13.09375 16.890625 14.875 13.375 
Q 16.65625 9.859375 20.171875 7.921875 
Q 23.6875 6 27.734375 6 
Q 34.03125 6 38.125 10.046875 
Q 42.234375 14.109375 42.234375 20.359375 
Q 42.234375 26.703125 38.015625 30.859375 
Q 33.796875 35.015625 27.4375 35.015625 
Q 21.234375 35.015625 17.15625 30.90625 
Q 13.09375 26.8125 13.09375 20.65625 
z
" id="ArialMT-56"/>
       </defs>
       <use xlink:href="#ArialMT-49"/>
       <use x="55.615234" xlink:href="#ArialMT-57"/>
       <use x="111.230469" xlink:href="#ArialMT-56"/>
       <use x="166.845703" xlink:href="#ArialMT-48"/>
      </g>
     </g>
    </g>
    <g id="xtick_5">
     <g id="text_5">
      <!-- 1990 -->
      <g style="fill:#262626;" transform="translate(385.528178 401.879375)scale(0.11 -0.11)">
       <use xlink:href="#ArialMT-49"/>
       <use x="55.615234" xlink:href="#ArialMT-57"/>
       <use x="111.230469" xlink:href="#ArialMT-57"/>
       <use x="166.845703" xlink:href="#ArialMT-48"/>
      </g>
     </g>
    </g>
    <g id="xtick_6">
     <g id="text_6">
      <!-- 2000 -->
      <g style="fill:#262626;" transform="translate(472.516472 401.879375)scale(0.11 -0.11)">
       <defs>
        <path d="M 50.34375 8.453125 
L 50.34375 0 
L 3.03125 0 
Q 2.9375 3.171875 4.046875 6.109375 
Q 5.859375 10.9375 9.828125 15.625 
Q 13.8125 20.3125 21.34375 26.46875 
Q 33.015625 36.03125 37.109375 41.625 
Q 41.21875 47.21875 41.21875 52.203125 
Q 41.21875 57.421875 37.46875 61 
Q 33.734375 64.59375 27.734375 64.59375 
Q 21.390625 64.59375 17.578125 60.78125 
Q 13.765625 56.984375 13.71875 50.25 
L 4.6875 51.171875 
Q 5.609375 61.28125 11.65625 66.578125 
Q 17.71875 71.875 27.9375 71.875 
Q 38.234375 71.875 44.234375 66.15625 
Q 50.25 60.453125 50.25 52 
Q 50.25 47.703125 48.484375 43.546875 
Q 46.734375 39.40625 42.65625 34.8125 
Q 38.578125 30.21875 29.109375 22.21875 
Q 21.1875 15.578125 18.9375 13.203125 
Q 16.703125 10.84375 15.234375 8.453125 
z
" id="ArialMT-50"/>
       </defs>
       <use xlink:href="#ArialMT-50"/>
       <use x="55.615234" xlink:href="#ArialMT-48"/>
       <use x="111.230469" xlink:href="#ArialMT-48"/>
       <use x="166.845703" xlink:href="#ArialMT-48"/>
      </g>
     </g>
    </g>
    <g id="text_7">
     <!-- Year -->
     <g style="fill:#262626;" transform="translate(294.298906 416.655)scale(0.12 -0.12)">
      <defs>
       <path d="M 27.875 0 
L 27.875 30.328125 
L 0.296875 71.578125 
L 11.8125 71.578125 
L 25.921875 50 
Q 29.828125 43.953125 33.203125 37.890625 
Q 36.421875 43.5 41.015625 50.53125 
L 54.890625 71.578125 
L 65.921875 71.578125 
L 37.359375 30.328125 
L 37.359375 0 
z
" id="ArialMT-89"/>
       <path d="M 42.09375 16.703125 
L 51.171875 15.578125 
Q 49.03125 7.625 43.21875 3.21875 
Q 37.40625 -1.171875 28.375 -1.171875 
Q 17 -1.171875 10.328125 5.828125 
Q 3.65625 12.84375 3.65625 25.484375 
Q 3.65625 38.578125 10.390625 45.796875 
Q 17.140625 53.03125 27.875 53.03125 
Q 38.28125 53.03125 44.875 45.953125 
Q 51.46875 38.875 51.46875 26.03125 
Q 51.46875 25.25 51.421875 23.6875 
L 12.75 23.6875 
Q 13.234375 15.140625 17.578125 10.59375 
Q 21.921875 6.0625 28.421875 6.0625 
Q 33.25 6.0625 36.671875 8.59375 
Q 40.09375 11.140625 42.09375 16.703125 
z
M 13.234375 30.90625 
L 42.1875 30.90625 
Q 41.609375 37.453125 38.875 40.71875 
Q 34.671875 45.796875 27.984375 45.796875 
Q 21.921875 45.796875 17.796875 41.75 
Q 13.671875 37.703125 13.234375 30.90625 
z
" id="ArialMT-101"/>
       <path d="M 40.4375 6.390625 
Q 35.546875 2.25 31.03125 0.53125 
Q 26.515625 -1.171875 21.34375 -1.171875 
Q 12.796875 -1.171875 8.203125 3 
Q 3.609375 7.171875 3.609375 13.671875 
Q 3.609375 17.484375 5.34375 20.625 
Q 7.078125 23.78125 9.890625 25.6875 
Q 12.703125 27.59375 16.21875 28.5625 
Q 18.796875 29.25 24.03125 29.890625 
Q 34.671875 31.15625 39.703125 32.90625 
Q 39.75 34.71875 39.75 35.203125 
Q 39.75 40.578125 37.25 42.78125 
Q 33.890625 45.75 27.25 45.75 
Q 21.046875 45.75 18.09375 43.578125 
Q 15.140625 41.40625 13.71875 35.890625 
L 5.125 37.0625 
Q 6.296875 42.578125 8.984375 45.96875 
Q 11.671875 49.359375 16.75 51.1875 
Q 21.828125 53.03125 28.515625 53.03125 
Q 35.15625 53.03125 39.296875 51.46875 
Q 43.453125 49.90625 45.40625 47.53125 
Q 47.359375 45.171875 48.140625 41.546875 
Q 48.578125 39.3125 48.578125 33.453125 
L 48.578125 21.734375 
Q 48.578125 9.46875 49.140625 6.21875 
Q 49.703125 2.984375 51.375 0 
L 42.1875 0 
Q 40.828125 2.734375 40.4375 6.390625 
z
M 39.703125 26.03125 
Q 34.90625 24.078125 25.34375 22.703125 
Q 19.921875 21.921875 17.671875 20.9375 
Q 15.4375 19.96875 14.203125 18.09375 
Q 12.984375 16.21875 12.984375 13.921875 
Q 12.984375 10.40625 15.640625 8.0625 
Q 18.3125 5.71875 23.4375 5.71875 
Q 28.515625 5.71875 32.46875 7.9375 
Q 36.421875 10.15625 38.28125 14.015625 
Q 39.703125 17 39.703125 22.796875 
z
" id="ArialMT-97"/>
       <path d="M 6.5 0 
L 6.5 51.859375 
L 14.40625 51.859375 
L 14.40625 44 
Q 17.4375 49.515625 20 51.265625 
Q 22.5625 53.03125 25.640625 53.03125 
Q 30.078125 53.03125 34.671875 50.203125 
L 31.640625 42.046875 
Q 28.421875 43.953125 25.203125 43.953125 
Q 22.3125 43.953125 20.015625 42.21875 
Q 17.71875 40.484375 16.75 37.40625 
Q 15.28125 32.71875 15.28125 27.15625 
L 15.28125 0 
z
" id="ArialMT-114"/>
      </defs>
      <use xlink:href="#ArialMT-89"/>
      <use x="57.574219" xlink:href="#ArialMT-101"/>
      <use x="113.189453" xlink:href="#ArialMT-97"/>
      <use x="168.804688" xlink:href="#ArialMT-114"/>
     </g>
    </g>
   </g>
   <g id="matplotlib.axis_2">
    <g id="ytick_1">
     <g id="text_8">
      <!-- 10 -->
      <g style="fill:#262626;" transform="translate(28.075 373.904856)scale(0.11 -0.11)">
       <use xlink:href="#ArialMT-49"/>
       <use x="55.615234" xlink:href="#ArialMT-48"/>
      </g>
     </g>
    </g>
    <g id="ytick_2">
     <g id="text_9">
      <!-- 20 -->
      <g style="fill:#262626;" transform="translate(28.075 333.724633)scale(0.11 -0.11)">
       <use xlink:href="#ArialMT-50"/>
       <use x="55.615234" xlink:href="#ArialMT-48"/>
      </g>
     </g>
    </g>
    <g id="ytick_3">
     <g id="text_10">
      <!-- 30 -->
      <g style="fill:#262626;" transform="translate(28.075 293.544409)scale(0.11 -0.11)">
       <defs>
        <path d="M 4.203125 18.890625 
L 12.984375 20.0625 
Q 14.5 12.59375 18.140625 9.296875 
Q 21.78125 6 27 6 
Q 33.203125 6 37.46875 10.296875 
Q 41.75 14.59375 41.75 20.953125 
Q 41.75 27 37.796875 30.921875 
Q 33.84375 34.859375 27.734375 34.859375 
Q 25.25 34.859375 21.53125 33.890625 
L 22.515625 41.609375 
Q 23.390625 41.5 23.921875 41.5 
Q 29.546875 41.5 34.03125 44.421875 
Q 38.53125 47.359375 38.53125 53.46875 
Q 38.53125 58.296875 35.25 61.46875 
Q 31.984375 64.65625 26.8125 64.65625 
Q 21.6875 64.65625 18.265625 61.421875 
Q 14.84375 58.203125 13.875 51.765625 
L 5.078125 53.328125 
Q 6.6875 62.15625 12.390625 67.015625 
Q 18.109375 71.875 26.609375 71.875 
Q 32.46875 71.875 37.390625 69.359375 
Q 42.328125 66.84375 44.9375 62.5 
Q 47.5625 58.15625 47.5625 53.265625 
Q 47.5625 48.640625 45.0625 44.828125 
Q 42.578125 41.015625 37.703125 38.765625 
Q 44.046875 37.3125 47.5625 32.6875 
Q 51.078125 28.078125 51.078125 21.140625 
Q 51.078125 11.765625 44.234375 5.25 
Q 37.40625 -1.265625 26.953125 -1.265625 
Q 17.53125 -1.265625 11.296875 4.34375 
Q 5.078125 9.96875 4.203125 18.890625 
z
" id="ArialMT-51"/>
       </defs>
       <use xlink:href="#ArialMT-51"/>
       <use x="55.615234" xlink:href="#ArialMT-48"/>
      </g>
     </g>
    </g>
    <g id="ytick_4">
     <g id="text_11">
      <!-- 40 -->
      <g style="fill:#262626;" transform="translate(28.075 253.364186)scale(0.11 -0.11)">
       <defs>
        <path d="M 32.328125 0 
L 32.328125 17.140625 
L 1.265625 17.140625 
L 1.265625 25.203125 
L 33.9375 71.578125 
L 41.109375 71.578125 
L 41.109375 25.203125 
L 50.78125 25.203125 
L 50.78125 17.140625 
L 41.109375 17.140625 
L 41.109375 0 
z
M 32.328125 25.203125 
L 32.328125 57.46875 
L 9.90625 25.203125 
z
" id="ArialMT-52"/>
       </defs>
       <use xlink:href="#ArialMT-52"/>
       <use x="55.615234" xlink:href="#ArialMT-48"/>
      </g>
     </g>
    </g>
    <g id="ytick_5">
     <g id="text_12">
      <!-- 50 -->
      <g style="fill:#262626;" transform="translate(28.075 213.183962)scale(0.11 -0.11)">
       <use xlink:href="#ArialMT-53"/>
       <use x="55.615234" xlink:href="#ArialMT-48"/>
      </g>
     </g>
    </g>
    <g id="ytick_6">
     <g id="text_13">
      <!-- 60 -->
      <g style="fill:#262626;" transform="translate(28.075 173.003739)scale(0.11 -0.11)">
       <use xlink:href="#ArialMT-54"/>
       <use x="55.615234" xlink:href="#ArialMT-48"/>
      </g>
     </g>
    </g>
    <g id="ytick_7">
     <g id="text_14">
      <!-- 70 -->
      <g style="fill:#262626;" transform="translate(28.075 132.823515)scale(0.11 -0.11)">
       <use xlink:href="#ArialMT-55"/>
       <use x="55.615234" xlink:href="#ArialMT-48"/>
      </g>
     </g>
    </g>
    <g id="ytick_8">
     <g id="text_15">
      <!-- 80 -->
      <g style="fill:#262626;" transform="translate(28.075 92.643292)scale(0.11 -0.11)">
       <use xlink:href="#ArialMT-56"/>
       <use x="55.615234" xlink:href="#ArialMT-48"/>
      </g>
     </g>
    </g>
    <g id="ytick_9">
     <g id="text_16">
      <!-- 90 -->
      <g style="fill:#262626;" transform="translate(28.075 52.463069)scale(0.11 -0.11)">
       <use xlink:href="#ArialMT-57"/>
       <use x="55.615234" xlink:href="#ArialMT-48"/>
      </g>
     </g>
    </g>
    <g id="text_17">
     <!-- Production in Million Barrels Per Day -->
     <g style="fill:#262626;" transform="translate(21.549375 303.728203)rotate(-90)scale(0.12 -0.12)">
      <defs>
       <path d="M 7.71875 0 
L 7.71875 71.578125 
L 34.71875 71.578125 
Q 41.84375 71.578125 45.609375 70.90625 
Q 50.875 70.015625 54.4375 67.546875 
Q 58.015625 65.09375 60.1875 60.640625 
Q 62.359375 56.203125 62.359375 50.875 
Q 62.359375 41.75 56.546875 35.421875 
Q 50.734375 29.109375 35.546875 29.109375 
L 17.1875 29.109375 
L 17.1875 0 
z
M 17.1875 37.546875 
L 35.6875 37.546875 
Q 44.875 37.546875 48.734375 40.96875 
Q 52.59375 44.390625 52.59375 50.59375 
Q 52.59375 55.078125 50.3125 58.265625 
Q 48.046875 61.46875 44.34375 62.5 
Q 41.9375 63.140625 35.5 63.140625 
L 17.1875 63.140625 
z
" id="ArialMT-80"/>
       <path d="M 3.328125 25.921875 
Q 3.328125 40.328125 11.328125 47.265625 
Q 18.015625 53.03125 27.640625 53.03125 
Q 38.328125 53.03125 45.109375 46.015625 
Q 51.90625 39.015625 51.90625 26.65625 
Q 51.90625 16.65625 48.90625 10.90625 
Q 45.90625 5.171875 40.15625 2 
Q 34.421875 -1.171875 27.640625 -1.171875 
Q 16.75 -1.171875 10.03125 5.8125 
Q 3.328125 12.796875 3.328125 25.921875 
z
M 12.359375 25.921875 
Q 12.359375 15.96875 16.703125 11.015625 
Q 21.046875 6.0625 27.640625 6.0625 
Q 34.1875 6.0625 38.53125 11.03125 
Q 42.875 16.015625 42.875 26.21875 
Q 42.875 35.84375 38.5 40.796875 
Q 34.125 45.75 27.640625 45.75 
Q 21.046875 45.75 16.703125 40.8125 
Q 12.359375 35.890625 12.359375 25.921875 
z
" id="ArialMT-111"/>
       <path d="M 40.234375 0 
L 40.234375 6.546875 
Q 35.296875 -1.171875 25.734375 -1.171875 
Q 19.53125 -1.171875 14.328125 2.25 
Q 9.125 5.671875 6.265625 11.796875 
Q 3.421875 17.921875 3.421875 25.875 
Q 3.421875 33.640625 6 39.96875 
Q 8.59375 46.296875 13.765625 49.65625 
Q 18.953125 53.03125 25.34375 53.03125 
Q 30.03125 53.03125 33.6875 51.046875 
Q 37.359375 49.078125 39.65625 45.90625 
L 39.65625 71.578125 
L 48.390625 71.578125 
L 48.390625 0 
z
M 12.453125 25.875 
Q 12.453125 15.921875 16.640625 10.984375 
Q 20.84375 6.0625 26.5625 6.0625 
Q 32.328125 6.0625 36.34375 10.765625 
Q 40.375 15.484375 40.375 25.140625 
Q 40.375 35.796875 36.265625 40.765625 
Q 32.171875 45.75 26.171875 45.75 
Q 20.3125 45.75 16.375 40.96875 
Q 12.453125 36.1875 12.453125 25.875 
z
" id="ArialMT-100"/>
       <path d="M 40.578125 0 
L 40.578125 7.625 
Q 34.515625 -1.171875 24.125 -1.171875 
Q 19.53125 -1.171875 15.546875 0.578125 
Q 11.578125 2.34375 9.640625 5 
Q 7.71875 7.671875 6.9375 11.53125 
Q 6.390625 14.109375 6.390625 19.734375 
L 6.390625 51.859375 
L 15.1875 51.859375 
L 15.1875 23.09375 
Q 15.1875 16.21875 15.71875 13.8125 
Q 16.546875 10.359375 19.234375 8.375 
Q 21.921875 6.390625 25.875 6.390625 
Q 29.828125 6.390625 33.296875 8.421875 
Q 36.765625 10.453125 38.203125 13.9375 
Q 39.65625 17.4375 39.65625 24.078125 
L 39.65625 51.859375 
L 48.4375 51.859375 
L 48.4375 0 
z
" id="ArialMT-117"/>
       <path d="M 40.4375 19 
L 49.078125 17.875 
Q 47.65625 8.9375 41.8125 3.875 
Q 35.984375 -1.171875 27.484375 -1.171875 
Q 16.84375 -1.171875 10.375 5.78125 
Q 3.90625 12.75 3.90625 25.734375 
Q 3.90625 34.125 6.6875 40.421875 
Q 9.46875 46.734375 15.15625 49.875 
Q 20.84375 53.03125 27.546875 53.03125 
Q 35.984375 53.03125 41.359375 48.75 
Q 46.734375 44.484375 48.25 36.625 
L 39.703125 35.296875 
Q 38.484375 40.53125 35.375 43.15625 
Q 32.28125 45.796875 27.875 45.796875 
Q 21.234375 45.796875 17.078125 41.03125 
Q 12.9375 36.28125 12.9375 25.984375 
Q 12.9375 15.53125 16.9375 10.796875 
Q 20.953125 6.0625 27.390625 6.0625 
Q 32.5625 6.0625 36.03125 9.234375 
Q 39.5 12.40625 40.4375 19 
z
" id="ArialMT-99"/>
       <path d="M 25.78125 7.859375 
L 27.046875 0.09375 
Q 23.34375 -0.6875 20.40625 -0.6875 
Q 15.625 -0.6875 12.984375 0.828125 
Q 10.359375 2.34375 9.28125 4.8125 
Q 8.203125 7.28125 8.203125 15.1875 
L 8.203125 45.015625 
L 1.765625 45.015625 
L 1.765625 51.859375 
L 8.203125 51.859375 
L 8.203125 64.703125 
L 16.9375 69.96875 
L 16.9375 51.859375 
L 25.78125 51.859375 
L 25.78125 45.015625 
L 16.9375 45.015625 
L 16.9375 14.703125 
Q 16.9375 10.9375 17.40625 9.859375 
Q 17.875 8.796875 18.921875 8.15625 
Q 19.96875 7.515625 21.921875 7.515625 
Q 23.390625 7.515625 25.78125 7.859375 
z
" id="ArialMT-116"/>
       <path d="M 6.640625 61.46875 
L 6.640625 71.578125 
L 15.4375 71.578125 
L 15.4375 61.46875 
z
M 6.640625 0 
L 6.640625 51.859375 
L 15.4375 51.859375 
L 15.4375 0 
z
" id="ArialMT-105"/>
       <path d="M 6.59375 0 
L 6.59375 51.859375 
L 14.5 51.859375 
L 14.5 44.484375 
Q 20.21875 53.03125 31 53.03125 
Q 35.6875 53.03125 39.625 51.34375 
Q 43.5625 49.65625 45.515625 46.921875 
Q 47.46875 44.1875 48.25 40.4375 
Q 48.734375 37.984375 48.734375 31.890625 
L 48.734375 0 
L 39.9375 0 
L 39.9375 31.546875 
Q 39.9375 36.921875 38.90625 39.578125 
Q 37.890625 42.234375 35.28125 43.8125 
Q 32.671875 45.40625 29.15625 45.40625 
Q 23.53125 45.40625 19.453125 41.84375 
Q 15.375 38.28125 15.375 28.328125 
L 15.375 0 
z
" id="ArialMT-110"/>
       <path id="ArialMT-32"/>
       <path d="M 7.421875 0 
L 7.421875 71.578125 
L 21.6875 71.578125 
L 38.625 20.90625 
Q 40.96875 13.8125 42.046875 10.296875 
Q 43.265625 14.203125 45.84375 21.78125 
L 62.984375 71.578125 
L 75.734375 71.578125 
L 75.734375 0 
L 66.609375 0 
L 66.609375 59.90625 
L 45.796875 0 
L 37.25 0 
L 16.546875 60.9375 
L 16.546875 0 
z
" id="ArialMT-77"/>
       <path d="M 6.390625 0 
L 6.390625 71.578125 
L 15.1875 71.578125 
L 15.1875 0 
z
" id="ArialMT-108"/>
       <path d="M 7.328125 0 
L 7.328125 71.578125 
L 34.1875 71.578125 
Q 42.390625 71.578125 47.34375 69.40625 
Q 52.296875 67.234375 55.09375 62.71875 
Q 57.90625 58.203125 57.90625 53.265625 
Q 57.90625 48.6875 55.421875 44.625 
Q 52.9375 40.578125 47.90625 38.09375 
Q 54.390625 36.1875 57.875 31.59375 
Q 61.375 27 61.375 20.75 
Q 61.375 15.71875 59.25 11.390625 
Q 57.125 7.078125 54 4.734375 
Q 50.875 2.390625 46.15625 1.1875 
Q 41.453125 0 34.625 0 
z
M 16.796875 41.5 
L 32.28125 41.5 
Q 38.578125 41.5 41.3125 42.328125 
Q 44.921875 43.40625 46.75 45.890625 
Q 48.578125 48.390625 48.578125 52.15625 
Q 48.578125 55.71875 46.875 58.421875 
Q 45.171875 61.140625 41.984375 62.140625 
Q 38.8125 63.140625 31.109375 63.140625 
L 16.796875 63.140625 
z
M 16.796875 8.453125 
L 34.625 8.453125 
Q 39.203125 8.453125 41.0625 8.796875 
Q 44.34375 9.375 46.53125 10.734375 
Q 48.734375 12.109375 50.140625 14.71875 
Q 51.5625 17.328125 51.5625 20.75 
Q 51.5625 24.75 49.515625 27.703125 
Q 47.46875 30.671875 43.828125 31.859375 
Q 40.1875 33.0625 33.34375 33.0625 
L 16.796875 33.0625 
z
" id="ArialMT-66"/>
       <path d="M 3.078125 15.484375 
L 11.765625 16.84375 
Q 12.5 11.625 15.84375 8.84375 
Q 19.1875 6.0625 25.203125 6.0625 
Q 31.25 6.0625 34.171875 8.515625 
Q 37.109375 10.984375 37.109375 14.3125 
Q 37.109375 17.28125 34.515625 19 
Q 32.71875 20.171875 25.53125 21.96875 
Q 15.875 24.421875 12.140625 26.203125 
Q 8.40625 27.984375 6.46875 31.125 
Q 4.546875 34.28125 4.546875 38.09375 
Q 4.546875 41.546875 6.125 44.5 
Q 7.71875 47.46875 10.453125 49.421875 
Q 12.5 50.921875 16.03125 51.96875 
Q 19.578125 53.03125 23.640625 53.03125 
Q 29.734375 53.03125 34.34375 51.265625 
Q 38.96875 49.515625 41.15625 46.5 
Q 43.359375 43.5 44.1875 38.484375 
L 35.59375 37.3125 
Q 35.015625 41.3125 32.203125 43.546875 
Q 29.390625 45.796875 24.265625 45.796875 
Q 18.21875 45.796875 15.625 43.796875 
Q 13.03125 41.796875 13.03125 39.109375 
Q 13.03125 37.40625 14.109375 36.03125 
Q 15.1875 34.625 17.484375 33.6875 
Q 18.796875 33.203125 25.25 31.453125 
Q 34.578125 28.953125 38.25 27.359375 
Q 41.9375 25.78125 44.03125 22.75 
Q 46.140625 19.734375 46.140625 15.234375 
Q 46.140625 10.84375 43.578125 6.953125 
Q 41.015625 3.078125 36.171875 0.953125 
Q 31.34375 -1.171875 25.25 -1.171875 
Q 15.140625 -1.171875 9.84375 3.03125 
Q 4.546875 7.234375 3.078125 15.484375 
z
" id="ArialMT-115"/>
       <path d="M 7.71875 0 
L 7.71875 71.578125 
L 32.375 71.578125 
Q 40.71875 71.578125 45.125 70.5625 
Q 51.265625 69.140625 55.609375 65.4375 
Q 61.28125 60.640625 64.078125 53.1875 
Q 66.890625 45.75 66.890625 36.1875 
Q 66.890625 28.03125 64.984375 21.734375 
Q 63.09375 15.4375 60.109375 11.296875 
Q 57.125 7.171875 53.578125 4.796875 
Q 50.046875 2.4375 45.046875 1.21875 
Q 40.046875 0 33.546875 0 
z
M 17.1875 8.453125 
L 32.46875 8.453125 
Q 39.546875 8.453125 43.578125 9.765625 
Q 47.609375 11.078125 50 13.484375 
Q 53.375 16.84375 55.25 22.53125 
Q 57.125 28.21875 57.125 36.328125 
Q 57.125 47.5625 53.4375 53.59375 
Q 49.75 59.625 44.484375 61.671875 
Q 40.671875 63.140625 32.234375 63.140625 
L 17.1875 63.140625 
z
" id="ArialMT-68"/>
       <path d="M 6.203125 -19.96875 
L 5.21875 -11.71875 
Q 8.109375 -12.5 10.25 -12.5 
Q 13.1875 -12.5 14.9375 -11.515625 
Q 16.703125 -10.546875 17.828125 -8.796875 
Q 18.65625 -7.46875 20.515625 -2.25 
Q 20.75 -1.515625 21.296875 -0.09375 
L 1.609375 51.859375 
L 11.078125 51.859375 
L 21.875 21.828125 
Q 23.96875 16.109375 25.640625 9.8125 
Q 27.15625 15.875 29.25 21.625 
L 40.328125 51.859375 
L 49.125 51.859375 
L 29.390625 -0.875 
Q 26.21875 -9.421875 24.46875 -12.640625 
Q 22.125 -17 19.09375 -19.015625 
Q 16.0625 -21.046875 11.859375 -21.046875 
Q 9.328125 -21.046875 6.203125 -19.96875 
z
" id="ArialMT-121"/>
      </defs>
      <use xlink:href="#ArialMT-80"/>
      <use x="66.699219" xlink:href="#ArialMT-114"/>
      <use x="100" xlink:href="#ArialMT-111"/>
      <use x="155.615234" xlink:href="#ArialMT-100"/>
      <use x="211.230469" xlink:href="#ArialMT-117"/>
      <use x="266.845703" xlink:href="#ArialMT-99"/>
      <use x="316.845703" xlink:href="#ArialMT-116"/>
      <use x="344.628906" xlink:href="#ArialMT-105"/>
      <use x="366.845703" xlink:href="#ArialMT-111"/>
      <use x="422.460938" xlink:href="#ArialMT-110"/>
      <use x="478.076172" xlink:href="#ArialMT-32"/>
      <use x="505.859375" xlink:href="#ArialMT-105"/>
      <use x="528.076172" xlink:href="#ArialMT-110"/>
      <use x="583.691406" xlink:href="#ArialMT-32"/>
      <use x="611.474609" xlink:href="#ArialMT-77"/>
      <use x="694.775391" xlink:href="#ArialMT-105"/>
      <use x="716.992188" xlink:href="#ArialMT-108"/>
      <use x="739.208984" xlink:href="#ArialMT-108"/>
      <use x="761.425781" xlink:href="#ArialMT-105"/>
      <use x="783.642578" xlink:href="#ArialMT-111"/>
      <use x="839.257812" xlink:href="#ArialMT-110"/>
      <use x="894.873047" xlink:href="#ArialMT-32"/>
      <use x="922.65625" xlink:href="#ArialMT-66"/>
      <use x="989.355469" xlink:href="#ArialMT-97"/>
      <use x="1044.970703" xlink:href="#ArialMT-114"/>
      <use x="1078.271484" xlink:href="#ArialMT-114"/>
      <use x="1111.572266" xlink:href="#ArialMT-101"/>
      <use x="1167.1875" xlink:href="#ArialMT-108"/>
      <use x="1189.404297" xlink:href="#ArialMT-115"/>
      <use x="1239.404297" xlink:href="#ArialMT-32"/>
      <use x="1267.1875" xlink:href="#ArialMT-80"/>
      <use x="1333.886719" xlink:href="#ArialMT-101"/>
      <use x="1389.501953" xlink:href="#ArialMT-114"/>
      <use x="1422.802734" xlink:href="#ArialMT-32"/>
      <use x="1450.585938" xlink:href="#ArialMT-68"/>
      <use x="1522.802734" xlink:href="#ArialMT-97"/>
      <use x="1578.417969" xlink:href="#ArialMT-121"/>
     </g>
    </g>
   </g>
   <g id="PathCollection_1">
    <defs>
     <path d="M 0 3 
C 0.795609 3 1.55874 2.683901 2.12132 2.12132 
C 2.683901 1.55874 3 0.795609 3 -0 
C 3 -0.795609 2.683901 -1.55874 2.12132 -2.12132 
C 1.55874 -2.683901 0.795609 -3 0 -3 
C -0.795609 -3 -1.55874 -2.683901 -2.12132 -2.12132 
C -2.683901 -1.55874 -3 -0.795609 -3 0 
C -3 0.795609 -2.683901 1.55874 -2.12132 2.12132 
C -1.55874 2.683901 -0.795609 3 0 3 
z
" id="C0_0_5f32988c71"/>
    </defs>
    <g clip-path="url(#p8330fbf74d)">
     <use style="fill:none;stroke:#008000;stroke-opacity:0.8;" x="49.809063" xlink:href="#C0_0_5f32988c71" y="368.28049"/>
    </g>
    <g clip-path="url(#p8330fbf74d)">
     <use style="fill:none;stroke:#008000;stroke-opacity:0.8;" x="58.507892" xlink:href="#C0_0_5f32988c71" y="363.016881"/>
    </g>
    <g clip-path="url(#p8330fbf74d)">
     <use style="fill:none;stroke:#008000;stroke-opacity:0.8;" x="67.206721" xlink:href="#C0_0_5f32988c71" y="360.565887"/>
    </g>
    <g clip-path="url(#p8330fbf74d)">
     <use style="fill:none;stroke:#008000;stroke-opacity:0.8;" x="75.905551" xlink:href="#C0_0_5f32988c71" y="357.311289"/>
    </g>
    <g clip-path="url(#p8330fbf74d)">
     <use style="fill:none;stroke:#008000;stroke-opacity:0.8;" x="84.60438" xlink:href="#C0_0_5f32988c71" y="354.940656"/>
    </g>
    <g clip-path="url(#p8330fbf74d)">
     <use style="fill:none;stroke:#008000;stroke-opacity:0.8;" x="93.30321" xlink:href="#C0_0_5f32988c71" y="348.230559"/>
    </g>
    <g clip-path="url(#p8330fbf74d)">
     <use style="fill:none;stroke:#008000;stroke-opacity:0.8;" x="102.002039" xlink:href="#C0_0_5f32988c71" y="342.725868"/>
    </g>
    <g clip-path="url(#p8330fbf74d)">
     <use style="fill:none;stroke:#008000;stroke-opacity:0.8;" x="110.700869" xlink:href="#C0_0_5f32988c71" y="339.270369"/>
    </g>
    <g clip-path="url(#p8330fbf74d)">
     <use style="fill:none;stroke:#008000;stroke-opacity:0.8;" x="119.399698" xlink:href="#C0_0_5f32988c71" y="337.422078"/>
    </g>
    <g clip-path="url(#p8330fbf74d)">
     <use style="fill:none;stroke:#008000;stroke-opacity:0.8;" x="128.098528" xlink:href="#C0_0_5f32988c71" y="331.636126"/>
    </g>
    <g clip-path="url(#p8330fbf74d)">
     <use style="fill:none;stroke:#008000;stroke-opacity:0.8;" x="136.797357" xlink:href="#C0_0_5f32988c71" y="325.649273"/>
    </g>
    <g clip-path="url(#p8330fbf74d)">
     <use style="fill:none;stroke:#008000;stroke-opacity:0.8;" x="145.496186" xlink:href="#C0_0_5f32988c71" y="320.024042"/>
    </g>
    <g clip-path="url(#p8330fbf74d)">
     <use style="fill:none;stroke:#008000;stroke-opacity:0.8;" x="154.195016" xlink:href="#C0_0_5f32988c71" y="312.389799"/>
    </g>
    <g clip-path="url(#p8330fbf74d)">
     <use style="fill:none;stroke:#008000;stroke-opacity:0.8;" x="162.893845" xlink:href="#C0_0_5f32988c71" y="305.157359"/>
    </g>
    <g clip-path="url(#p8330fbf74d)">
     <use style="fill:none;stroke:#008000;stroke-opacity:0.8;" x="171.592675" xlink:href="#C0_0_5f32988c71" y="296.639152"/>
    </g>
    <g clip-path="url(#p8330fbf74d)">
     <use style="fill:none;stroke:#008000;stroke-opacity:0.8;" x="180.291504" xlink:href="#C0_0_5f32988c71" y="282.334992"/>
    </g>
    <g clip-path="url(#p8330fbf74d)">
     <use style="fill:none;stroke:#008000;stroke-opacity:0.8;" x="188.990334" xlink:href="#C0_0_5f32988c71" y="271.24525"/>
    </g>
    <g clip-path="url(#p8330fbf74d)">
     <use style="fill:none;stroke:#008000;stroke-opacity:0.8;" x="197.689163" xlink:href="#C0_0_5f32988c71" y="260.999293"/>
    </g>
    <g clip-path="url(#p8330fbf74d)">
     <use style="fill:none;stroke:#008000;stroke-opacity:0.8;" x="206.387993" xlink:href="#C0_0_5f32988c71" y="247.659459"/>
    </g>
    <g clip-path="url(#p8330fbf74d)">
     <use style="fill:none;stroke:#008000;stroke-opacity:0.8;" x="215.086822" xlink:href="#C0_0_5f32988c71" y="234.801788"/>
    </g>
    <g clip-path="url(#p8330fbf74d)">
     <use style="fill:none;stroke:#008000;stroke-opacity:0.8;" x="223.785651" xlink:href="#C0_0_5f32988c71" y="217.042129"/>
    </g>
    <g clip-path="url(#p8330fbf74d)">
     <use style="fill:none;stroke:#008000;stroke-opacity:0.8;" x="232.484481" xlink:href="#C0_0_5f32988c71" y="205.831847"/>
    </g>
    <g clip-path="url(#p8330fbf74d)">
     <use style="fill:none;stroke:#008000;stroke-opacity:0.8;" x="241.18331" xlink:href="#C0_0_5f32988c71" y="194.501024"/>
    </g>
    <g clip-path="url(#p8330fbf74d)">
     <use style="fill:none;stroke:#008000;stroke-opacity:0.8;" x="249.88214" xlink:href="#C0_0_5f32988c71" y="175.214516"/>
    </g>
    <g clip-path="url(#p8330fbf74d)">
     <use style="fill:none;stroke:#008000;stroke-opacity:0.8;" x="258.580969" xlink:href="#C0_0_5f32988c71" y="174.611813"/>
    </g>
    <g clip-path="url(#p8330fbf74d)">
     <use style="fill:none;stroke:#008000;stroke-opacity:0.8;" x="267.279799" xlink:href="#C0_0_5f32988c71" y="185.822095"/>
    </g>
    <g clip-path="url(#p8330fbf74d)">
     <use style="fill:none;stroke:#008000;stroke-opacity:0.8;" x="275.978628" xlink:href="#C0_0_5f32988c71" y="167.419553"/>
    </g>
    <g clip-path="url(#p8330fbf74d)">
     <use style="fill:none;stroke:#008000;stroke-opacity:0.8;" x="284.677458" xlink:href="#C0_0_5f32988c71" y="158.178102"/>
    </g>
    <g clip-path="url(#p8330fbf74d)">
     <use style="fill:none;stroke:#008000;stroke-opacity:0.8;" x="293.376287" xlink:href="#C0_0_5f32988c71" y="155.686928"/>
    </g>
    <g clip-path="url(#p8330fbf74d)">
     <use style="fill:none;stroke:#008000;stroke-opacity:0.8;" x="302.075117" xlink:href="#C0_0_5f32988c71" y="144.757907"/>
    </g>
    <g clip-path="url(#p8330fbf74d)">
     <use style="fill:none;stroke:#008000;stroke-opacity:0.8;" x="310.773946" xlink:href="#C0_0_5f32988c71" y="157.213776"/>
    </g>
    <g clip-path="url(#p8330fbf74d)">
     <use style="fill:none;stroke:#008000;stroke-opacity:0.8;" x="319.472775" xlink:href="#C0_0_5f32988c71" y="170.955413"/>
    </g>
    <g clip-path="url(#p8330fbf74d)">
     <use style="fill:none;stroke:#008000;stroke-opacity:0.8;" x="328.171605" xlink:href="#C0_0_5f32988c71" y="179.915602"/>
    </g>
    <g clip-path="url(#p8330fbf74d)">
     <use style="fill:none;stroke:#008000;stroke-opacity:0.8;" x="336.870434" xlink:href="#C0_0_5f32988c71" y="182.728218"/>
    </g>
    <g clip-path="url(#p8330fbf74d)">
     <use style="fill:none;stroke:#008000;stroke-opacity:0.8;" x="345.569264" xlink:href="#C0_0_5f32988c71" y="178.348574"/>
    </g>
    <g clip-path="url(#p8330fbf74d)">
     <use style="fill:none;stroke:#008000;stroke-opacity:0.8;" x="354.268093" xlink:href="#C0_0_5f32988c71" y="179.232539"/>
    </g>
    <g clip-path="url(#p8330fbf74d)">
     <use style="fill:none;stroke:#008000;stroke-opacity:0.8;" x="362.966923" xlink:href="#C0_0_5f32988c71" y="167.218652"/>
    </g>
    <g clip-path="url(#p8330fbf74d)">
     <use style="fill:none;stroke:#008000;stroke-opacity:0.8;" x="371.665752" xlink:href="#C0_0_5f32988c71" y="165.932885"/>
    </g>
    <g clip-path="url(#p8330fbf74d)">
     <use style="fill:none;stroke:#008000;stroke-opacity:0.8;" x="380.364582" xlink:href="#C0_0_5f32988c71" y="156.410172"/>
    </g>
    <g clip-path="url(#p8330fbf74d)">
     <use style="fill:none;stroke:#008000;stroke-opacity:0.8;" x="389.063411" xlink:href="#C0_0_5f32988c71" y="152.834132"/>
    </g>
    <g clip-path="url(#p8330fbf74d)">
     <use style="fill:none;stroke:#008000;stroke-opacity:0.8;" x="397.76224" xlink:href="#C0_0_5f32988c71" y="147.12854"/>
    </g>
    <g clip-path="url(#p8330fbf74d)">
     <use style="fill:none;stroke:#008000;stroke-opacity:0.8;" x="406.46107" xlink:href="#C0_0_5f32988c71" y="147.891964"/>
    </g>
    <g clip-path="url(#p8330fbf74d)">
     <use style="fill:none;stroke:#008000;stroke-opacity:0.8;" x="415.159899" xlink:href="#C0_0_5f32988c71" y="145.882953"/>
    </g>
    <g clip-path="url(#p8330fbf74d)">
     <use style="fill:none;stroke:#008000;stroke-opacity:0.8;" x="423.858729" xlink:href="#C0_0_5f32988c71" y="144.838267"/>
    </g>
    <g clip-path="url(#p8330fbf74d)">
     <use style="fill:none;stroke:#008000;stroke-opacity:0.8;" x="432.557558" xlink:href="#C0_0_5f32988c71" y="140.538983"/>
    </g>
    <g clip-path="url(#p8330fbf74d)">
     <use style="fill:none;stroke:#008000;stroke-opacity:0.8;" x="441.256388" xlink:href="#C0_0_5f32988c71" y="136.520961"/>
    </g>
    <g clip-path="url(#p8330fbf74d)">
     <use style="fill:none;stroke:#008000;stroke-opacity:0.8;" x="449.955217" xlink:href="#C0_0_5f32988c71" y="129.288521"/>
    </g>
    <g clip-path="url(#p8330fbf74d)">
     <use style="fill:none;stroke:#008000;stroke-opacity:0.8;" x="458.654047" xlink:href="#C0_0_5f32988c71" y="120.12743"/>
    </g>
    <g clip-path="url(#p8330fbf74d)">
     <use style="fill:none;stroke:#008000;stroke-opacity:0.8;" x="467.352876" xlink:href="#C0_0_5f32988c71" y="114.662919"/>
    </g>
    <g clip-path="url(#p8330fbf74d)">
     <use style="fill:none;stroke:#008000;stroke-opacity:0.8;" x="476.051706" xlink:href="#C0_0_5f32988c71" y="119.564907"/>
    </g>
    <g clip-path="url(#p8330fbf74d)">
     <use style="fill:none;stroke:#008000;stroke-opacity:0.8;" x="484.750535" xlink:href="#C0_0_5f32988c71" y="109.519851"/>
    </g>
    <g clip-path="url(#p8330fbf74d)">
     <use style="fill:none;stroke:#008000;stroke-opacity:0.8;" x="493.449364" xlink:href="#C0_0_5f32988c71" y="109.560031"/>
    </g>
    <g clip-path="url(#p8330fbf74d)">
     <use style="fill:none;stroke:#008000;stroke-opacity:0.8;" x="502.148194" xlink:href="#C0_0_5f32988c71" y="110.685077"/>
    </g>
    <g clip-path="url(#p8330fbf74d)">
     <use style="fill:none;stroke:#008000;stroke-opacity:0.8;" x="510.847023" xlink:href="#C0_0_5f32988c71" y="101.082004"/>
    </g>
    <g clip-path="url(#p8330fbf74d)">
     <use style="fill:none;stroke:#008000;stroke-opacity:0.8;" x="519.545853" xlink:href="#C0_0_5f32988c71" y="87.219827"/>
    </g>
    <g clip-path="url(#p8330fbf74d)">
     <use style="fill:none;stroke:#008000;stroke-opacity:0.8;" x="528.244682" xlink:href="#C0_0_5f32988c71" y="83.643787"/>
    </g>
    <g clip-path="url(#p8330fbf74d)">
     <use style="fill:none;stroke:#008000;stroke-opacity:0.8;" x="536.943512" xlink:href="#C0_0_5f32988c71" y="82.43838"/>
    </g>
    <g clip-path="url(#p8330fbf74d)">
     <use style="fill:none;stroke:#008000;stroke-opacity:0.8;" x="545.642341" xlink:href="#C0_0_5f32988c71" y="82.880363"/>
    </g>
    <g clip-path="url(#p8330fbf74d)">
     <use style="fill:none;stroke:#008000;stroke-opacity:0.8;" x="554.341171" xlink:href="#C0_0_5f32988c71" y="80.710631"/>
    </g>
    <g clip-path="url(#p8330fbf74d)">
     <use style="fill:none;stroke:#008000;stroke-opacity:0.8;" x="563.04" xlink:href="#C0_0_5f32988c71" y="88.907396"/>
    </g>
   </g>
   <g id="PolyCollection_1">
    <defs>
     <path d="M 49.809063 -98.545619 
L 49.809063 -72.310623 
L 54.993213 -75.330757 
L 60.177364 -78.391153 
L 65.361515 -81.429881 
L 70.545666 -84.46933 
L 75.729817 -87.510175 
L 80.913968 -90.549913 
L 86.098119 -93.590378 
L 91.28227 -96.735705 
L 96.46642 -99.814801 
L 101.650571 -102.917918 
L 106.834722 -106.007619 
L 112.018873 -109.097319 
L 117.203024 -112.18702 
L 122.387175 -115.279598 
L 127.571326 -118.372531 
L 132.755477 -121.465464 
L 137.939628 -124.552814 
L 143.123778 -127.648131 
L 148.307929 -130.737847 
L 153.49208 -133.831047 
L 158.676231 -136.944257 
L 163.860382 -140.014185 
L 169.044533 -143.103653 
L 174.228684 -146.138533 
L 179.412835 -149.126413 
L 184.596985 -152.160763 
L 189.781136 -155.169767 
L 194.965287 -158.234244 
L 200.149438 -161.332561 
L 205.333589 -164.431483 
L 210.51774 -167.532105 
L 215.701891 -170.635285 
L 220.886042 -173.704858 
L 226.070193 -176.736747 
L 231.254343 -179.859873 
L 236.438494 -182.909728 
L 241.622645 -185.961115 
L 246.806796 -188.997642 
L 251.990947 -191.992533 
L 257.175098 -194.983173 
L 262.359249 -197.973812 
L 267.5434 -200.98689 
L 272.727551 -204.119424 
L 277.911701 -207.174153 
L 283.095852 -210.242324 
L 288.280003 -213.264275 
L 293.464154 -216.286214 
L 298.648305 -219.306403 
L 303.832456 -222.327659 
L 309.016607 -225.359738 
L 314.200758 -228.445936 
L 319.384908 -231.397044 
L 324.569059 -234.408567 
L 329.75321 -237.428928 
L 334.937361 -240.4297 
L 340.121512 -243.380824 
L 345.305663 -246.395626 
L 350.489814 -249.423244 
L 355.673965 -252.405865 
L 360.858116 -255.388744 
L 366.042266 -258.412428 
L 371.226417 -261.383981 
L 376.410568 -264.369934 
L 381.594719 -267.374838 
L 386.77887 -270.341046 
L 391.963021 -273.281265 
L 397.147172 -276.260728 
L 402.331323 -279.241142 
L 407.515473 -282.216838 
L 412.699624 -285.080718 
L 417.883775 -288.11877 
L 423.067926 -291.157852 
L 428.252077 -294.152907 
L 433.436228 -297.065699 
L 438.620379 -300.077504 
L 443.80453 -303.094606 
L 448.988681 -306.028136 
L 454.172831 -308.871281 
L 459.356982 -311.896287 
L 464.541133 -314.930358 
L 469.725284 -317.877558 
L 474.909435 -320.848211 
L 480.093586 -323.724243 
L 485.277737 -326.618997 
L 490.461888 -329.519401 
L 495.646039 -332.506306 
L 500.830189 -335.39335 
L 506.01434 -338.244842 
L 511.198491 -341.018931 
L 516.382642 -343.896977 
L 521.566793 -346.774079 
L 526.750944 -349.644759 
L 531.935095 -352.533454 
L 537.119246 -355.412682 
L 542.303396 -358.283139 
L 547.487547 -361.116707 
L 552.671698 -363.951558 
L 557.855849 -366.842062 
L 563.04 -369.675329 
L 563.04 -388.225334 
L 563.04 -388.225334 
L 557.855849 -385.123445 
L 552.671698 -381.956756 
L 547.487547 -378.776573 
L 542.303396 -375.596391 
L 537.119246 -372.523099 
L 531.935095 -369.456349 
L 526.750944 -366.321228 
L 521.566793 -363.184086 
L 516.382642 -360.046506 
L 511.198491 -356.908926 
L 506.01434 -353.768754 
L 500.830189 -350.635025 
L 495.646039 -347.499253 
L 490.461888 -344.36348 
L 485.277737 -341.227708 
L 480.093586 -338.091161 
L 474.909435 -335.008491 
L 469.725284 -332.012379 
L 464.541133 -328.886196 
L 459.356982 -325.756365 
L 454.172831 -322.625902 
L 448.988681 -319.495438 
L 443.80453 -316.444723 
L 438.620379 -313.411726 
L 433.436228 -310.374125 
L 428.252077 -307.338864 
L 423.067926 -304.374555 
L 417.883775 -301.359939 
L 412.699624 -298.248204 
L 407.515473 -295.202528 
L 402.331323 -292.163904 
L 397.147172 -289.041787 
L 391.963021 -286.00333 
L 386.77887 -283.057569 
L 381.594719 -280.016974 
L 376.410568 -276.988641 
L 371.226417 -273.892901 
L 366.042266 -270.918854 
L 360.858116 -267.883846 
L 355.673965 -264.812886 
L 350.489814 -261.88726 
L 345.305663 -259.002686 
L 340.121512 -256.118182 
L 334.937361 -253.11804 
L 329.75321 -250.239458 
L 324.569059 -247.403341 
L 319.384908 -244.432308 
L 314.200758 -241.500887 
L 309.016607 -238.599002 
L 303.832456 -235.738741 
L 298.648305 -232.858697 
L 293.464154 -230.02325 
L 288.280003 -227.2071 
L 283.095852 -224.412009 
L 277.911701 -221.611547 
L 272.727551 -218.73237 
L 267.5434 -215.904446 
L 262.359249 -213.023891 
L 257.175098 -210.110247 
L 251.990947 -207.198486 
L 246.806796 -204.363967 
L 241.622645 -201.557955 
L 236.438494 -198.749216 
L 231.254343 -195.94612 
L 226.070193 -193.136652 
L 220.886042 -190.351221 
L 215.701891 -187.605555 
L 210.51774 -184.821388 
L 205.333589 -181.997654 
L 200.149438 -179.173921 
L 194.965287 -176.350187 
L 189.781136 -173.525175 
L 184.596985 -170.787318 
L 179.412835 -168.039733 
L 174.228684 -165.220442 
L 169.044533 -162.387214 
L 163.860382 -159.61245 
L 158.676231 -156.837686 
L 153.49208 -154.061673 
L 148.307929 -151.283964 
L 143.123778 -148.506256 
L 137.939628 -145.728548 
L 132.755477 -142.8902 
L 127.571326 -140.037794 
L 122.387175 -137.18961 
L 117.203024 -134.470409 
L 112.018873 -131.751209 
L 106.834722 -129.032008 
L 101.650571 -126.29836 
L 96.46642 -123.524067 
L 91.28227 -120.749774 
L 86.098119 -117.975482 
L 80.913968 -115.201189 
L 75.729817 -112.426896 
L 70.545666 -109.651561 
L 65.361515 -106.875075 
L 60.177364 -104.09859 
L 54.993213 -101.322104 
L 49.809063 -98.545619 
z
" id="mefdd42351f" style="stroke:#ffffff;stroke-opacity:0.15;"/>
    </defs>
    <g clip-path="url(#p8330fbf74d)">
     <use style="fill:#4c72b0;fill-opacity:0.15;stroke:#ffffff;stroke-opacity:0.15;" x="0" xlink:href="#mefdd42351f" y="432"/>
    </g>
   </g>
   <g id="line2d_1">
    <path clip-path="url(#p8330fbf74d)" d="M 49.809063 349.096827 
L 54.993213 346.122901 
L 60.177364 343.148975 
L 65.361515 340.175048 
L 70.545666 337.201122 
L 75.729817 334.227196 
L 80.913968 331.25327 
L 86.098119 328.279344 
L 91.28227 325.305418 
L 96.46642 322.331492 
L 101.650571 319.357566 
L 106.834722 316.38364 
L 112.018873 313.409714 
L 117.203024 310.435788 
L 122.387175 307.461862 
L 127.571326 304.487936 
L 132.755477 301.51401 
L 137.939628 298.540084 
L 143.123778 295.566158 
L 148.307929 292.592232 
L 153.49208 289.618306 
L 158.676231 286.64438 
L 163.860382 283.670454 
L 169.044533 280.696528 
L 174.228684 277.722602 
L 179.412835 274.748676 
L 184.596985 271.77475 
L 189.781136 268.800824 
L 194.965287 265.826898 
L 200.149438 262.852972 
L 205.333589 259.879046 
L 210.51774 256.90512 
L 215.701891 253.931194 
L 220.886042 250.957267 
L 226.070193 247.983341 
L 231.254343 245.009415 
L 236.438494 242.035489 
L 241.622645 239.061563 
L 246.806796 236.087637 
L 251.990947 233.113711 
L 257.175098 230.139785 
L 262.359249 227.165859 
L 267.5434 224.191933 
L 272.727551 221.218007 
L 277.911701 218.244081 
L 283.095852 215.270155 
L 288.280003 212.296229 
L 293.464154 209.322303 
L 298.648305 206.348377 
L 303.832456 203.374451 
L 309.016607 200.400525 
L 314.200758 197.426599 
L 319.384908 194.452673 
L 324.569059 191.478747 
L 329.75321 188.504821 
L 334.937361 185.530895 
L 340.121512 182.556969 
L 345.305663 179.583043 
L 350.489814 176.609117 
L 355.673965 173.635191 
L 360.858116 170.661265 
L 366.042266 167.687339 
L 371.226417 164.713413 
L 376.410568 161.739486 
L 381.594719 158.76556 
L 386.77887 155.791634 
L 391.963021 152.817708 
L 397.147172 149.843782 
L 402.331323 146.869856 
L 407.515473 143.89593 
L 412.699624 140.922004 
L 417.883775 137.948078 
L 423.067926 134.974152 
L 428.252077 132.000226 
L 433.436228 129.0263 
L 438.620379 126.052374 
L 443.80453 123.078448 
L 448.988681 120.104522 
L 454.172831 117.130596 
L 459.356982 114.15667 
L 464.541133 111.182744 
L 469.725284 108.208818 
L 474.909435 105.234892 
L 480.093586 102.260966 
L 485.277737 99.28704 
L 490.461888 96.313114 
L 495.646039 93.339188 
L 500.830189 90.365262 
L 506.01434 87.391336 
L 511.198491 84.41741 
L 516.382642 81.443484 
L 521.566793 78.469558 
L 526.750944 75.495632 
L 531.935095 72.521706 
L 537.119246 69.547779 
L 542.303396 66.573853 
L 547.487547 63.599927 
L 552.671698 60.626001 
L 557.855849 57.652075 
L 563.04 54.678149 
" style="fill:none;stroke:#4c72b0;stroke-linecap:round;stroke-width:2.25;"/>
   </g>
   <g id="patch_3">
    <path d="M 49.809063 384.505781 
L 49.809063 27.549375 
" style="fill:none;stroke:#262626;stroke-linecap:square;stroke-linejoin:miter;stroke-width:1.25;"/>
   </g>
   <g id="patch_4">
    <path d="M 563.04 384.505781 
L 563.04 27.549375 
" style="fill:none;stroke:#262626;stroke-linecap:square;stroke-linejoin:miter;stroke-width:1.25;"/>
   </g>
   <g id="patch_5">
    <path d="M 49.809063 384.505781 
L 563.04 384.505781 
" style="fill:none;stroke:#262626;stroke-linecap:square;stroke-linejoin:miter;stroke-width:1.25;"/>
   </g>
   <g id="patch_6">
    <path d="M 49.809063 27.549375 
L 563.04 27.549375 
" style="fill:none;stroke:#262626;stroke-linecap:square;stroke-linejoin:miter;stroke-width:1.25;"/>
   </g>
   <g id="text_18">
    <!-- World Oil Production -->
    <g style="fill:#262626;" transform="translate(251.512344 21.549375)scale(0.12 -0.12)">
     <defs>
      <path d="M 20.21875 0 
L 1.21875 71.578125 
L 10.9375 71.578125 
L 21.828125 24.65625 
Q 23.578125 17.28125 24.859375 10.015625 
Q 27.59375 21.484375 28.078125 23.25 
L 41.703125 71.578125 
L 53.125 71.578125 
L 63.375 35.359375 
Q 67.234375 21.875 68.953125 10.015625 
Q 70.3125 16.796875 72.515625 25.59375 
L 83.734375 71.578125 
L 93.265625 71.578125 
L 73.640625 0 
L 64.5 0 
L 49.421875 54.546875 
Q 47.515625 61.375 47.171875 62.9375 
Q 46.046875 58.015625 45.0625 54.546875 
L 29.890625 0 
z
" id="ArialMT-87"/>
      <path d="M 4.828125 34.859375 
Q 4.828125 52.6875 14.390625 62.765625 
Q 23.96875 72.859375 39.109375 72.859375 
Q 49.03125 72.859375 56.984375 68.109375 
Q 64.9375 63.375 69.109375 54.90625 
Q 73.296875 46.4375 73.296875 35.6875 
Q 73.296875 24.8125 68.890625 16.21875 
Q 64.5 7.625 56.4375 3.203125 
Q 48.390625 -1.21875 39.0625 -1.21875 
Q 28.953125 -1.21875 20.984375 3.65625 
Q 13.03125 8.546875 8.921875 16.984375 
Q 4.828125 25.4375 4.828125 34.859375 
z
M 14.59375 34.71875 
Q 14.59375 21.78125 21.546875 14.328125 
Q 28.515625 6.890625 39.015625 6.890625 
Q 49.703125 6.890625 56.609375 14.40625 
Q 63.53125 21.921875 63.53125 35.75 
Q 63.53125 44.484375 60.578125 51 
Q 57.625 57.515625 51.921875 61.109375 
Q 46.234375 64.703125 39.15625 64.703125 
Q 29.109375 64.703125 21.84375 57.78125 
Q 14.59375 50.875 14.59375 34.71875 
z
" id="ArialMT-79"/>
     </defs>
     <use xlink:href="#ArialMT-87"/>
     <use x="92.634766" xlink:href="#ArialMT-111"/>
     <use x="148.25" xlink:href="#ArialMT-114"/>
     <use x="181.550781" xlink:href="#ArialMT-108"/>
     <use x="203.767578" xlink:href="#ArialMT-100"/>
     <use x="259.382812" xlink:href="#ArialMT-32"/>
     <use x="287.166016" xlink:href="#ArialMT-79"/>
     <use x="364.949219" xlink:href="#ArialMT-105"/>
     <use x="387.166016" xlink:href="#ArialMT-108"/>
     <use x="409.382812" xlink:href="#ArialMT-32"/>
     <use x="437.166016" xlink:href="#ArialMT-80"/>
     <use x="503.865234" xlink:href="#ArialMT-114"/>
     <use x="537.166016" xlink:href="#ArialMT-111"/>
     <use x="592.78125" xlink:href="#ArialMT-100"/>
     <use x="648.396484" xlink:href="#ArialMT-117"/>
     <use x="704.011719" xlink:href="#ArialMT-99"/>
     <use x="754.011719" xlink:href="#ArialMT-116"/>
     <use x="781.794922" xlink:href="#ArialMT-105"/>
     <use x="804.011719" xlink:href="#ArialMT-111"/>
     <use x="859.626953" xlink:href="#ArialMT-110"/>
    </g>
   </g>
  </g>
 </g>
 <defs>
  <clipPath id="p8330fbf74d">
   <rect height="356.956406" width="513.230937" x="49.809063" y="27.549375"/>
  </clipPath>
 </defs>
</svg>
